<svg width="132" height="132" viewBox="0 0 132 132" fill="none" xmlns="http://www.w3.org/2000/svg">
<g clip-path="url(#clip0_379_4433)">
<path d="M79.22 10.5796L66.0418 2.38364C63.9957 1.11132 61.3712 2.70023 61.5501 5.10281L61.7808 8.20226C61.8345 8.92105 61.2895 9.54986 60.5701 9.59601C43.6688 10.6814 28.6666 18.7621 18.4566 31.0057C16.8798 32.8966 17.2185 35.7217 19.2215 37.1531L19.3252 37.2271C21.1332 38.519 23.6175 38.1697 25.037 36.4598C33.9786 25.6914 46.9647 19.015 61.2265 18.1397C61.9394 18.0959 62.5571 18.6314 62.6102 19.344L62.909 23.3559C63.0877 25.7584 65.919 26.941 67.7539 25.3797L79.5729 15.3226C81.0922 14.0304 80.9138 11.633 79.22 10.5796Z" stroke="white" stroke-width="4" stroke-miterlimit="10" stroke-linecap="round" stroke-linejoin="round"/>
<path d="M112.779 94.8469L112.675 94.7729C110.867 93.481 108.383 93.8304 106.963 95.5399C98.0213 106.309 85.0354 112.985 70.7733 113.86C70.0605 113.904 69.4427 113.368 69.3896 112.656L69.0908 108.644C68.9121 106.242 66.0808 105.059 64.2459 106.62L52.4272 116.677C50.9079 117.97 51.0866 120.367 52.7804 121.42L65.9584 129.616C68.0041 130.888 70.6289 129.3 70.45 126.897L70.2193 123.797C70.1656 123.079 70.7107 122.45 71.43 122.404C88.3328 121.318 103.334 113.237 113.544 100.994C115.12 99.1035 114.782 96.2781 112.779 94.8469Z" stroke="white" stroke-width="4" stroke-miterlimit="10" stroke-linecap="round" stroke-linejoin="round"/>
<path d="M10.5796 52.7802L2.38364 65.9584C1.11132 68.0044 2.70023 70.629 5.10281 70.45L8.20226 70.2193C8.92105 70.1657 9.54986 70.7107 9.59601 71.43C10.6814 88.3313 18.7621 103.334 31.0057 113.544C32.8966 115.12 35.7217 114.782 37.1531 112.779L37.2271 112.675C38.519 110.867 38.1697 108.383 36.4598 106.963C25.6914 98.0216 19.015 85.0354 18.1397 70.7736C18.0959 70.0607 18.6314 69.443 19.344 69.3899L23.3559 69.0911C25.7584 68.9124 26.941 66.0811 25.3797 64.2462L15.3226 52.4272C14.0304 50.9079 11.633 51.0866 10.5796 52.7802Z" stroke="white" stroke-width="4" stroke-miterlimit="10" stroke-linecap="round" stroke-linejoin="round"/>
<path d="M55.0535 63.6816C54.1253 63.6816 53.373 64.4339 53.373 65.3621V92.9264H66.0269V63.6816H55.0535Z" stroke="white" stroke-width="4" stroke-miterlimit="10" stroke-linecap="round" stroke-linejoin="round"/>
<path d="M42.3992 76.5186C41.471 76.5186 40.7188 77.2709 40.7188 78.199V92.9263H53.3724V76.5186H42.3992Z" stroke="white" stroke-width="4" stroke-miterlimit="10" stroke-linecap="round" stroke-linejoin="round"/>
<path d="M67.7058 50.8447C66.7777 50.8447 66.0254 51.597 66.0254 52.5252V92.9263H78.6792V50.8447H67.7058Z" stroke="white" stroke-width="4" stroke-miterlimit="10" stroke-linecap="round" stroke-linejoin="round"/>
<path d="M38.7949 92.9268H93.206" stroke="white" stroke-width="4" stroke-miterlimit="10" stroke-linecap="round" stroke-linejoin="round"/>
<path d="M38.6172 56.3932L49.7384 46.4287" stroke="white" stroke-width="4" stroke-miterlimit="10" stroke-linecap="round" stroke-linejoin="round"/>
<path d="M60.1669 39.8414C60.5446 38.1514 59.1472 36.5919 57.4261 36.7824L47.7942 37.849C45.7539 38.0748 44.8224 40.5127 46.1922 42.0418L53.7105 50.4328C55.0805 51.9619 57.6055 51.3027 58.0533 49.299L60.1669 39.8414Z" stroke="white" stroke-width="4" stroke-miterlimit="10" stroke-linecap="round" stroke-linejoin="round"/>
<path d="M112.241 30.8834C109.088 26.2332 105.3 22.0481 100.994 18.4575C99.1035 16.8807 96.2783 17.2195 94.8469 19.2227L94.7729 19.3261C93.481 21.1344 93.8304 23.6187 95.5399 25.0383C106.309 33.9801 112.985 46.9659 113.86 61.228C113.904 61.9409 113.368 62.5586 112.656 62.6117L108.644 62.9105C106.242 63.0894 105.059 65.9205 106.62 67.7554L116.677 79.5741C117.97 81.0934 120.367 80.9148 121.42 79.2209L129.616 66.0427C130.888 63.997 129.3 61.3721 126.897 61.5511L123.797 61.7818C123.079 61.8354 122.45 61.2904 122.404 60.5711C121.904 52.791 119.919 45.4154 116.731 38.7228" stroke="white" stroke-width="4" stroke-miterlimit="10" stroke-linecap="round" stroke-linejoin="round"/>
<path d="M91.3335 61.4881V39.6883C91.3335 38.7601 90.5812 38.0078 89.6531 38.0078H80.3601C79.432 38.0078 78.6797 38.7601 78.6797 39.6883V92.9263H91.3335V70.5116" stroke="white" stroke-width="4" stroke-miterlimit="10" stroke-linecap="round" stroke-linejoin="round"/>
</g>
<defs>
<clipPath id="clip0_379_4433">
<rect width="132" height="132" fill="white"/>
</clipPath>
</defs>
</svg>
