<svg width="126" height="126" viewBox="0 0 126 126" fill="none" xmlns="http://www.w3.org/2000/svg">
<g clip-path="url(#clip0_379_4508)">
<path d="M124.459 86.4786L117.928 85.0254C117.543 83.8743 117.077 82.7517 116.534 81.666L120.127 76.0174C120.367 75.6395 120.472 75.191 120.423 74.7458C120.374 74.3006 120.175 73.8854 119.858 73.5687L112.972 66.6825C112.655 66.3659 112.24 66.1667 111.795 66.1178C111.35 66.0689 110.901 66.1732 110.523 66.4136L104.875 70.0065C103.788 69.4631 102.665 68.9968 101.514 68.6109L100.062 62.0794C99.9643 61.6422 99.7206 61.2513 99.371 60.9712C99.0214 60.6912 98.5867 60.5387 98.1388 60.5391H88.4004C87.9525 60.5391 87.518 60.6918 87.1686 60.9721C86.8192 61.2523 86.5758 61.6434 86.4786 62.0806L85.0267 68.6122C83.8755 68.9975 82.7528 69.4633 81.667 70.0063L76.0184 66.4133C75.6405 66.173 75.192 66.0686 74.7468 66.1175C74.3017 66.1664 73.8865 66.3657 73.5698 66.6823L66.6836 73.5685C66.3669 73.8852 66.1677 74.3004 66.1188 74.7455C66.0699 75.1907 66.1742 75.6392 66.4146 76.0171L70.0076 81.6657C69.4639 82.7515 68.9972 83.8742 68.611 85.0254L62.0794 86.4773C61.6422 86.5748 61.2513 86.8185 60.9713 87.1681C60.6912 87.5177 60.5388 87.9524 60.5391 88.4003V98.1387C60.5391 98.5866 60.6918 99.0211 60.972 99.3705C61.2523 99.7198 61.6432 99.9632 62.0804 100.06L68.6122 101.512C68.9975 102.664 69.4634 103.786 70.0063 104.872L66.4134 110.521C66.173 110.899 66.0687 111.347 66.1176 111.792C66.1665 112.237 66.3657 112.653 66.6824 112.969L73.5686 119.856C73.8852 120.172 74.3004 120.371 74.7456 120.42C75.1908 120.469 75.6393 120.365 76.0172 120.125L81.6658 116.532C82.7515 117.075 83.8742 117.542 85.0254 117.928L86.4774 124.46C86.5749 124.897 86.8185 125.288 87.1682 125.568C87.5178 125.848 87.9524 126 88.4004 126H98.1388C98.5867 126 99.0211 125.847 99.3705 125.567C99.7199 125.287 99.9633 124.896 100.061 124.459L101.512 117.927C102.664 117.542 103.786 117.076 104.872 116.533L110.521 120.126C110.899 120.366 111.347 120.47 111.792 120.422C112.238 120.373 112.653 120.173 112.969 119.857L119.856 112.971C120.172 112.654 120.371 112.239 120.42 111.794C120.469 111.348 120.365 110.9 120.125 110.522L116.532 104.873C117.075 103.788 117.542 102.665 117.928 101.514L124.46 100.062C124.897 99.9642 125.288 99.7206 125.568 99.371C125.848 99.0213 126 98.5867 126 98.1387V88.4003C126 87.9525 125.847 87.518 125.567 87.1686C125.287 86.8192 124.896 86.5758 124.459 86.4786ZM122.063 96.5598L115.957 97.918C115.61 97.9951 115.291 98.1645 115.033 98.4082C114.775 98.6519 114.587 98.961 114.49 99.3025C114.025 100.94 113.37 102.519 112.539 104.005C112.366 104.315 112.28 104.666 112.29 105.021C112.3 105.376 112.406 105.722 112.597 106.021L115.956 111.303L111.303 115.956L106.021 112.597C105.722 112.406 105.376 112.3 105.021 112.29C104.666 112.28 104.315 112.366 104.005 112.539C102.518 113.37 100.94 114.025 99.3023 114.49C98.9608 114.587 98.6519 114.775 98.4082 115.033C98.1645 115.291 97.9952 115.61 97.9181 115.957L96.5599 122.062H89.9793L88.6211 115.957C88.5441 115.61 88.3747 115.291 88.131 115.033C87.8872 114.775 87.5782 114.587 87.2366 114.49C85.5987 114.025 84.0205 113.37 82.534 112.539C82.224 112.366 81.8729 112.28 81.5179 112.29C81.163 112.3 80.8174 112.406 80.5177 112.597L75.2366 115.956L70.5832 111.303L73.9424 106.021C74.133 105.722 74.239 105.376 74.2492 105.021C74.2594 104.666 74.1733 104.315 74.0002 104.005C73.1693 102.518 72.5144 100.94 72.0487 99.302C71.9517 98.9606 71.7643 98.6517 71.5062 98.4081C71.2481 98.1644 70.9289 97.9951 70.5825 97.918L64.4766 96.5598V89.9793L70.5825 88.6211C70.929 88.544 71.2483 88.3746 71.5064 88.1308C71.7646 87.8871 71.952 87.5781 72.0489 87.2365C72.5146 85.5986 73.1694 84.0204 74.0002 82.5339C74.1733 82.2239 74.2593 81.8728 74.2491 81.5178C74.2389 81.1629 74.1329 80.8173 73.9424 80.5177L70.5832 75.2365L75.2366 70.5831L80.5177 73.9423C80.8174 74.1329 81.163 74.239 81.518 74.2491C81.873 74.2593 82.2242 74.1733 82.5342 74.0001C84.0208 73.1693 85.599 72.5144 87.2371 72.0486C87.5786 71.9517 87.8875 71.7642 88.1311 71.506C88.3747 71.2479 88.5441 70.9286 88.6211 70.5821L89.9793 64.4766H96.5599L97.9181 70.5824C97.9952 70.929 98.1645 71.2482 98.4083 71.5064C98.652 71.7645 98.961 71.952 99.3026 72.0489C100.941 72.5146 102.519 73.1695 104.005 74.0001C104.315 74.1732 104.666 74.2592 105.021 74.2491C105.376 74.2389 105.722 74.1329 106.021 73.9423L111.303 70.5831L115.956 75.2365L112.597 80.5177C112.406 80.8174 112.3 81.163 112.29 81.518C112.28 81.873 112.366 82.2241 112.539 82.5342C113.37 84.0208 114.025 85.5991 114.49 87.237C114.587 87.5785 114.775 87.8874 115.033 88.131C115.291 88.3746 115.61 88.544 115.957 88.6211L122.063 89.9793V96.5598ZM93.2696 76.7544C90.0032 76.7544 86.8102 77.723 84.0943 79.5377C81.3784 81.3524 79.2616 83.9317 78.0116 86.9495C76.7616 89.9672 76.4346 93.2878 77.0718 96.4915C77.7091 99.6951 79.282 102.638 81.5916 104.947C83.9013 107.257 86.844 108.83 90.0476 109.467C93.2513 110.105 96.5719 109.777 99.5896 108.528C102.607 107.278 105.187 105.161 107.001 102.445C108.816 99.7289 109.785 96.5359 109.785 93.2695C109.78 88.891 108.038 84.6932 104.942 81.5971C101.846 78.5009 97.6481 76.7594 93.2696 76.7544ZM93.2696 105.847C90.782 105.847 88.3502 105.109 86.2818 103.727C84.2135 102.345 82.6014 100.381 81.6494 98.0828C80.6974 95.7845 80.4483 93.2556 80.9337 90.8158C81.419 88.3759 82.6169 86.1348 84.3759 84.3758C86.1349 82.6168 88.376 81.4189 90.8158 80.9336C93.2556 80.4483 95.7846 80.6974 98.0828 81.6493C100.381 82.6013 102.345 84.2134 103.727 86.2818C105.11 88.3502 105.847 90.7819 105.847 93.2695C105.843 96.6042 104.517 99.8011 102.159 102.159C99.8012 104.517 96.6042 105.843 93.2696 105.847ZM0.0172817 34.0038C0.213834 40.095 2.0973 46.0121 5.45792 51.0962C5.52112 51.1919 5.5926 51.2819 5.67153 51.3652C9.47924 55.3814 12.0931 60.3788 13.2202 65.7971C13.4674 67.0271 14.0781 68.1545 14.9731 69.0337C15.8681 69.9128 17.0063 70.5032 18.2405 70.7283V74.7072C18.2422 76.0158 18.6486 77.2918 19.4041 78.3603C20.1596 79.4288 21.2271 80.2374 22.4603 80.6752C22.9348 83.0498 24.2175 85.1867 26.0901 86.7222C27.9626 88.2576 30.3094 89.0967 32.731 89.0967C35.1526 89.0967 37.4994 88.2576 39.372 86.7222C41.2446 85.1867 42.5272 83.0498 43.0017 80.6752C44.2349 80.2374 45.3025 79.4288 46.058 78.3603C46.8134 77.2918 47.2199 76.0158 47.2215 74.7072V70.7273C48.4557 70.5022 49.594 69.9119 50.489 69.0327C51.384 68.1536 51.9946 67.0261 52.2418 65.7961C53.3689 60.3778 55.9827 55.3804 59.7905 51.3642C59.8694 51.281 59.9409 51.191 60.0041 51.0952C63.2741 46.1464 65.147 40.4063 65.425 34.4812C65.7031 28.5561 64.376 22.6659 61.5838 17.4326C58.7917 12.1992 54.6382 7.81697 49.5618 4.7486C44.4855 1.68023 38.6748 0.0396165 32.7433 0L32.7187 0C28.322 0.0292299 23.9756 0.938442 19.9359 2.67403C15.8961 4.40962 12.2448 6.93646 9.19703 10.1056C6.1493 13.2747 3.76692 17.0219 2.19033 21.1263C0.613746 25.2307 -0.125125 29.6093 0.0172817 34.0038ZM32.7305 85.1588C31.422 85.159 30.1436 84.7665 29.0607 84.0319C27.9778 83.2973 27.1404 82.2546 26.6569 81.0387H38.8041C38.3206 82.2546 37.4832 83.2973 36.4003 84.0319C35.3175 84.7665 34.039 85.159 32.7305 85.1588ZM43.2835 74.7072C43.2829 75.3419 43.0305 75.9504 42.5817 76.3992C42.1329 76.848 41.5244 77.1004 40.8898 77.1012H24.5713C23.9366 77.1004 23.3281 76.848 22.8793 76.3992C22.4306 75.9504 22.1782 75.3419 22.1775 74.7072V70.8378H43.2835V74.7072ZM25.5963 42.5496H22.8449C22.3008 42.5496 21.7688 42.3882 21.3164 42.0859C20.8639 41.7836 20.5113 41.3539 20.303 40.8512C20.0948 40.3484 20.0403 39.7952 20.1465 39.2615C20.2526 38.7278 20.5147 38.2376 20.8995 37.8528C21.2842 37.468 21.7745 37.206 22.3082 37.0998C22.8419 36.9937 23.3951 37.0481 23.8978 37.2564C24.4006 37.4646 24.8303 37.8173 25.1326 38.2697C25.4349 38.7222 25.5963 39.2541 25.5963 39.7983V42.5496ZM29.5338 66.9011V46.4871H35.9275V66.9011H29.5338ZM7.75865 18.5486C10.2843 14.146 13.9181 10.481 18.299 7.91777C22.6798 5.35455 27.6551 3.98234 32.7305 3.9375C37.9377 3.97471 43.0388 5.4133 47.4982 8.10221C51.9576 10.7911 55.6107 14.6311 58.0739 19.219C60.5372 23.8069 61.7197 28.9734 61.4972 34.1759C61.2748 39.3785 59.6557 44.4252 56.8098 48.7861C52.5645 53.3113 49.6497 58.9198 48.386 64.9946C48.2825 65.5375 47.9907 66.0263 47.5619 66.375C47.1331 66.7237 46.595 66.9097 46.0425 66.9003H39.8655V46.4871H42.6161C43.939 46.4872 45.2323 46.0949 46.3323 45.36C47.4323 44.625 48.2897 43.5804 48.796 42.3582C49.3023 41.1359 49.4348 39.791 49.1767 38.4935C48.9186 37.196 48.2816 36.0041 47.3462 35.0687C46.4107 34.1332 45.2189 33.4961 43.9214 33.238C42.6239 32.9799 41.2789 33.1123 40.0567 33.6186C38.8345 34.1248 37.7898 34.9822 37.0548 36.0821C36.3198 37.1821 35.9275 38.4753 35.9275 39.7983V42.5496H29.5338V39.7983C29.5338 38.4754 29.1415 37.1821 28.4065 36.0822C27.6715 34.9822 26.6269 34.1249 25.4046 33.6186C24.1824 33.1123 22.8375 32.9799 21.54 33.238C20.2425 33.4961 19.0507 34.1331 18.1152 35.0686C17.1798 36.004 16.5427 37.1959 16.2846 38.4934C16.0265 39.7909 16.159 41.1358 16.6653 42.358C17.1715 43.5802 18.0289 44.6249 19.1288 45.3598C20.2288 46.0948 21.522 46.4871 22.8449 46.4871H25.5963V66.9011H19.4193C18.8667 66.9104 18.3286 66.7243 17.8999 66.3756C17.4711 66.0269 17.1792 65.538 17.0758 64.9951C15.8121 58.9204 12.8973 53.3119 8.65197 48.7869C5.71951 44.3229 4.08335 39.1328 3.92563 33.7942C3.76792 28.4555 5.09482 23.1778 7.75865 18.5486ZM39.865 42.5496V39.7983C39.865 39.2541 40.0264 38.7222 40.3287 38.2697C40.6311 37.8172 41.0608 37.4646 41.5635 37.2564C42.0663 37.0481 42.6195 36.9937 43.1532 37.0998C43.6869 37.206 44.1772 37.4681 44.5619 37.8529C44.9467 38.2377 45.2087 38.728 45.3148 39.2617C45.421 39.7954 45.3665 40.3486 45.1582 40.8513C44.9499 41.3541 44.5972 41.7838 44.1447 42.086C43.6922 42.3883 43.1603 42.5497 42.6161 42.5496H39.865ZM63.8402 115.817C63.8402 116.339 63.6328 116.84 63.2636 117.209C62.8944 117.578 62.3936 117.786 61.8715 117.786H31.5601C31.038 117.786 30.5372 117.578 30.168 117.209C29.7988 116.84 29.5914 116.339 29.5914 115.817V99.2203L26.414 102.397C26.0434 102.76 25.5449 102.961 25.0266 102.959C24.5082 102.956 24.012 102.748 23.6455 102.382C23.279 102.015 23.0718 101.519 23.0689 101.001C23.066 100.482 23.2676 99.9839 23.63 99.6133L30.1679 93.0751C30.3508 92.8923 30.5678 92.7473 30.8067 92.6483C31.0455 92.5494 31.3016 92.4984 31.5601 92.4984C31.8187 92.4984 32.0747 92.5494 32.3135 92.6483C32.5524 92.7473 32.7694 92.8923 32.9523 93.0751L39.4902 99.6133C39.6764 99.7954 39.8246 100.013 39.9263 100.252C40.0279 100.492 40.081 100.75 40.0825 101.01C40.084 101.27 40.0337 101.528 39.9348 101.769C39.8358 102.01 39.69 102.229 39.5059 102.413C39.3218 102.597 39.1029 102.743 38.8621 102.842C38.6212 102.941 38.3632 102.991 38.1028 102.99C37.8424 102.988 37.5849 102.935 37.3451 102.833C37.1054 102.732 36.8882 102.584 36.7062 102.397L33.5289 99.2203V113.847H61.8715C62.3936 113.847 62.8944 114.055 63.2636 114.424C63.6328 114.793 63.8402 115.294 63.8402 115.816V115.817ZM92.4713 50.3722V22.1209H68.6792C68.157 22.1209 67.6562 21.9135 67.287 21.5442C66.9178 21.175 66.7104 20.6743 66.7104 20.1521C66.7104 19.63 66.9178 19.1292 67.287 18.76C67.6562 18.3908 68.157 18.1834 68.6792 18.1834H94.44C94.9622 18.1834 95.4629 18.3908 95.8321 18.76C96.2013 19.1292 96.4088 19.63 96.4088 20.1521V50.3724L99.5861 47.1951C99.9567 46.8327 100.455 46.6311 100.974 46.634C101.492 46.6369 101.988 46.8441 102.355 47.2106C102.721 47.5771 102.928 48.0734 102.931 48.5917C102.934 49.11 102.733 49.6086 102.37 49.9792L95.8322 56.5172C95.6493 56.7 95.4323 56.845 95.1934 56.9439C94.9546 57.0429 94.6986 57.0938 94.44 57.0938C94.1815 57.0938 93.9254 57.0429 93.6866 56.9439C93.4477 56.845 93.2307 56.7 93.0479 56.5172L86.5099 49.9792C86.3252 49.7968 86.1785 49.5797 86.0781 49.3403C85.9776 49.101 85.9255 48.8442 85.9247 48.5846C85.9239 48.3251 85.9744 48.068 86.0734 47.828C86.1723 47.5881 86.3178 47.3701 86.5013 47.1865C86.6848 47.003 86.9028 46.8575 87.1427 46.7586C87.3827 46.6596 87.6398 46.6091 87.8994 46.6098C88.1589 46.6106 88.4157 46.6627 88.6551 46.7631C88.8944 46.8635 89.1115 47.0102 89.2939 47.1949L92.4713 50.3722Z" fill="white"/>
</g>
<defs>
<clipPath id="clip0_379_4508">
<rect width="126" height="126" fill="white"/>
</clipPath>
</defs>
</svg>
