<svg width="122" height="122" viewBox="0 0 122 122" fill="none" xmlns="http://www.w3.org/2000/svg">
<g clip-path="url(#clip0_379_4513)">
<path d="M34.7052 44.1537C33.7747 43.2235 32.2667 43.2235 31.3359 44.1537L31.3111 44.1785C30.3807 45.109 30.3807 46.6176 31.3111 47.5481C31.7765 48.0132 32.386 48.246 32.9958 48.246C33.6056 48.246 34.2151 48.0132 34.6804 47.5481L34.7052 47.5233C35.6355 46.593 35.6355 45.0842 34.7052 44.1537Z" fill="white"/>
<path d="M104.617 55.7123H98.5541C98.2288 54.4856 97.8483 53.2613 97.4222 52.0704C96.979 50.8316 95.6151 50.1868 94.3763 50.63C93.1375 51.0732 92.4924 52.4369 92.9359 53.6759C93.3386 54.8016 93.6958 55.9608 93.9977 57.121C94.5116 59.0973 96.3021 60.4775 98.3518 60.4775H104.356V74.3778H98.3377C96.2906 74.3778 94.5009 75.7556 93.9848 77.7288C93.0431 81.3328 91.6077 84.7902 89.7186 88.0047C88.6826 89.7667 88.9721 92.0104 90.422 93.4601L94.6856 97.7234L84.8567 107.552L80.5786 103.274C79.1313 101.827 76.8907 101.537 75.1301 102.567C71.9178 104.447 68.4649 105.875 64.8678 106.81C62.8915 107.324 61.5111 109.115 61.5111 111.164V117.222H47.6107V111.151C47.6107 109.104 46.2328 107.314 44.2595 106.798C40.6679 105.859 37.221 104.43 34.0151 102.549C32.2537 101.516 30.0113 101.806 28.5625 103.255L24.2651 107.552L14.4363 97.7234L18.7339 93.426C20.1824 91.9775 20.4724 89.7353 19.4392 87.9734C17.5587 84.7678 16.1293 81.3209 15.1909 77.7295C14.6755 75.756 12.8853 74.3778 10.8377 74.3778H4.76515V60.4775H10.8232C12.8731 60.4775 14.6636 59.0971 15.1773 57.1208C16.1128 53.5234 17.5404 50.0705 19.4206 46.8585C20.4514 45.0978 20.1605 42.8573 18.7134 41.4097L14.4353 37.1318L24.2642 27.303L28.5275 31.5665C29.9772 33.0162 32.2209 33.3058 33.9832 32.27C37.1974 30.3806 40.6548 28.9455 44.2591 28.0038C46.232 27.4879 47.6098 25.6979 47.6098 23.6508V17.6323H61.5102V23.6363C61.5102 25.6862 62.8903 27.4764 64.8666 27.9904C66.0006 28.2854 67.1334 28.6333 68.2333 29.0243C69.4726 29.4656 70.8355 28.817 71.2761 27.5772C71.7167 26.3375 71.0688 24.975 69.829 24.5344C68.6672 24.1215 67.4724 23.7516 66.2753 23.4342V17.3707C66.2753 14.8873 64.2552 12.8672 61.7718 12.8672H47.3486C44.8653 12.8672 42.8451 14.8873 42.8451 17.3707V23.4481C38.9611 24.4829 35.2316 26.0313 31.7536 28.0531L27.4488 23.7481C25.6927 21.9924 22.8359 21.9924 21.0798 23.7481L10.8809 33.947C9.12498 35.7029 9.12498 38.5601 10.8809 40.316L15.2009 44.6356C13.1886 48.1111 11.6486 51.8352 10.6207 55.7123H4.50352C2.02015 55.7123 0 57.7324 0 60.2158V74.639C0 77.1224 2.02015 79.1425 4.50352 79.1425H10.6345C11.666 83.0136 13.2077 86.7313 15.2202 90.1997L10.8809 94.539C9.12498 96.2949 9.12498 99.1522 10.8809 100.908L21.0798 111.107C22.8359 112.863 25.6927 112.863 27.4488 111.107L31.7879 106.767C35.2566 108.78 38.9745 110.322 42.8451 111.353V117.484C42.8451 119.967 44.8653 121.988 47.3486 121.988H61.7718C64.2552 121.988 66.2753 119.967 66.2753 117.484V111.367C70.1524 110.339 73.8762 108.799 77.3521 106.787L81.6716 111.107C83.4277 112.862 86.2845 112.862 88.0406 111.107L98.2395 100.908C99.9954 99.1519 99.9954 96.2947 98.2395 94.5388L93.9345 90.234C95.9563 86.7563 97.5047 83.0262 98.5395 79.1425H104.617C107.1 79.1425 109.12 77.1224 109.12 74.639V60.2158C109.121 57.7327 107.101 55.7123 104.617 55.7123Z" fill="white"/>
<path d="M121.42 18.6806C120.254 15.8622 117.636 14.1065 114.586 14.0986L107.931 14.0813L107.913 7.42582C107.905 4.37606 106.15 1.75782 103.331 0.592389C100.512 -0.572092 97.4206 0.0412444 95.2613 2.19531L79.3448 18.0722C78.8966 18.5192 78.6447 19.1264 78.6447 19.759V39.9974L76.0737 42.5685C70.6187 37.8429 63.8832 35.1396 56.943 34.6323V31.8489C56.943 30.5334 55.876 29.4664 54.5604 29.4664C53.2449 29.4664 52.1779 30.5331 52.1779 31.8489V34.628C48.032 34.9278 43.9014 36.015 40.0124 37.9337C38.8327 38.5158 38.348 39.9443 38.9301 41.1245C39.512 42.3042 40.9408 42.7889 42.121 42.207C45.3385 40.6198 48.7492 39.7005 52.1781 39.4101V41.5379C52.1781 42.8535 53.2451 43.9205 54.5607 43.9205C55.8762 43.9205 56.9432 42.8537 56.9432 41.5379V39.4079C62.6453 39.8955 68.1694 42.121 72.6958 45.9468L65.9129 52.7298C62.7704 50.2971 58.8333 48.8443 54.5609 48.8443C44.3136 48.8443 35.9771 57.1808 35.9771 67.4281C35.9771 77.6754 44.3136 86.0119 54.5609 86.0119C64.8082 86.0119 73.1447 77.6754 73.1447 67.4281C73.1447 63.1674 71.7002 59.2401 69.2795 56.1019L76.0636 49.3178C79.919 53.8888 82.0843 59.4081 82.5597 65.0456H80.4514C79.1358 65.0456 78.0688 66.1123 78.0688 67.4281C78.0688 68.7437 79.1358 69.8107 80.4514 69.8107H82.5597C82.0212 76.1964 79.3162 82.4322 74.4407 87.3077C69.5652 92.1834 63.3294 94.8881 56.9437 95.4267V93.3186C56.9437 92.003 55.8769 90.936 54.5611 90.936C53.2456 90.936 52.1786 92.0028 52.1786 93.3186V95.4267C45.7929 94.8881 39.5571 92.1832 34.6816 87.3077C29.8907 82.5171 27.1157 76.2769 26.5591 69.8107H28.6707C29.9862 69.8107 31.0533 68.7439 31.0533 67.4281C31.0533 66.1126 29.9865 65.0456 28.6707 65.0456H26.5526C26.8281 61.7475 27.6842 58.4678 29.157 55.3659C29.7215 54.1773 29.2154 52.756 28.0266 52.192C26.8381 51.627 25.4167 52.1333 24.8527 53.3221C23.0706 57.076 22.0608 61.0527 21.7767 65.0456H18.9822C17.6666 65.0456 16.5996 66.1123 16.5996 67.4281C16.5996 68.7437 17.6664 69.8107 18.9822 69.8107H21.7832C22.351 77.5167 25.6105 84.9752 31.3125 90.6772C36.9576 96.3221 44.2941 99.6612 52.1791 100.222V103.008C52.1791 104.323 53.2458 105.39 54.5616 105.39C55.8772 105.39 56.9442 104.323 56.9442 103.008V100.222C64.8292 99.6612 72.1656 96.3224 77.8107 90.6772C83.4556 85.0321 86.7946 77.6957 87.3556 69.8107H90.1411C91.4566 69.8107 92.5236 68.7439 92.5236 67.4281C92.5236 66.1126 91.4569 65.0456 90.1411 65.0456H87.3556C86.8511 57.955 84.1002 51.3086 79.4461 45.9364L82.0154 43.367H102.254C102.887 43.367 103.494 43.1151 103.941 42.6669L119.818 26.7504C121.971 24.5914 122.585 21.4989 121.42 18.6806ZM54.5609 81.247C46.9414 81.247 40.742 75.0479 40.742 67.4281C40.742 59.8084 46.9412 53.6093 54.5609 53.6093C57.518 53.6093 60.2587 54.5459 62.5085 56.1338L58.2881 60.3543C57.3576 61.2848 57.3576 62.7933 58.2881 63.7238C58.7535 64.1889 59.363 64.4217 59.9728 64.4217C60.5825 64.4217 61.192 64.1889 61.6574 63.7238L65.874 59.5072C67.4503 61.752 68.3796 64.4827 68.3796 67.4279C68.3798 75.0477 62.1807 81.247 54.5609 81.247ZM83.4101 20.7476L98.6267 5.56913C99.7874 4.41108 101.128 4.83785 101.511 4.9963C101.894 5.15452 103.144 5.79883 103.148 7.43845L103.169 15.4733L90.1399 28.5027L83.4101 35.2325V20.7476ZM116.443 23.3854L101.265 38.6016H86.7799L93.5097 31.8718L106.539 18.8424L114.574 18.8633C116.214 18.8676 116.858 20.1179 117.016 20.5008C117.174 20.8844 117.601 22.2245 116.443 23.3854Z" fill="white"/>
<path d="M55.9498 66.0605C55.5087 65.617 54.8942 65.3623 54.2654 65.3623C53.6387 65.3623 53.0242 65.617 52.581 66.0605C52.138 66.5037 51.8828 67.1184 51.8828 67.7449C51.8828 68.3739 52.1378 68.9861 52.581 69.429C53.0242 69.8746 53.6389 70.1274 54.2654 70.1274C54.8945 70.1274 55.5066 69.8746 55.9498 69.429C56.3954 68.9861 56.648 68.3716 56.648 67.7449C56.648 67.1182 56.3954 66.5034 55.9498 66.0605Z" fill="white"/>
</g>
<defs>
<clipPath id="clip0_379_4513">
<rect width="122" height="122" fill="white"/>
</clipPath>
</defs>
</svg>
