<svg width="93" height="119" viewBox="0 0 93 119" fill="none" xmlns="http://www.w3.org/2000/svg">
<path d="M20.1776 50.6726L30.996 37.6574C31.6088 36.9201 31.5079 35.826 30.7706 35.2133C30.0338 34.6007 28.9393 34.7016 28.3265 35.4387L19.0532 46.595L17.0263 43.3025C16.5239 42.4864 15.455 42.2316 14.6384 42.7344C13.8222 43.237 13.5679 44.3061 14.0703 45.1221L17.3646 50.4729C17.9875 51.4841 19.419 51.5853 20.1776 50.6726Z" fill="white"/>
<path d="M14.0705 68.0316L17.3648 73.3824C17.9872 74.3936 19.4187 74.4948 20.1773 73.5819L30.9957 60.5666C31.6085 59.8294 31.5076 58.7353 30.7704 58.1225C30.0336 57.51 28.939 57.6107 28.3262 58.3479L19.0529 69.5042L17.026 66.2118C16.5236 65.3956 15.4547 65.1408 14.6381 65.6437C13.8222 66.1465 13.5678 67.2156 14.0705 68.0316Z" fill="white"/>
<path d="M14.0705 91.095L17.3648 96.4459C17.9872 97.4571 19.4187 97.5582 20.1773 96.6453L30.9957 83.6301C31.6085 82.8928 31.5076 81.7988 30.7704 81.186C30.0336 80.5735 28.939 80.6741 28.3262 81.4114L19.0529 92.5677L17.026 89.2753C16.5236 88.4591 15.4547 88.2045 14.6381 88.7072C13.8222 89.21 13.5678 90.2791 14.0705 91.095Z" fill="white"/>
<path d="M90.827 97.9783C89.8685 97.9783 89.0914 98.7551 89.0914 99.7139V112.347C89.0914 113.815 87.8976 115.009 86.4302 115.009H6.13227C4.66492 115.009 3.47109 113.815 3.47109 112.347V36.2863C3.47109 35.3276 2.69403 34.5508 1.73555 34.5508C0.777062 34.5508 0 35.3276 0 36.2863V112.347C0 115.729 2.75096 118.48 6.13227 118.48H86.4302C89.8115 118.48 92.5625 115.729 92.5625 112.347V99.7139C92.5625 98.7554 91.7854 97.9783 90.827 97.9783Z" fill="white"/>
<path d="M86.4302 13.3732H77.9404V6.20169C77.9404 2.7822 75.1584 0 71.7387 0C68.319 0 65.537 2.78197 65.537 6.20169V13.3732H52.4829V6.20169C52.4829 2.78197 49.7007 0 46.2812 0C42.8618 0 40.0796 2.78197 40.0796 6.20169V13.3732H27.0252V6.20169C27.0252 2.7822 24.2433 0 20.8236 0C17.4041 0 14.6219 2.78197 14.6219 6.20169V13.3732H6.13227C2.75096 13.3732 0 16.1242 0 19.5055V28.1874C0 29.1461 0.777062 29.9229 1.73555 29.9229C2.69403 29.9229 3.47109 29.1461 3.47109 28.1874V19.5055C3.47109 18.0381 4.66492 16.8443 6.13227 16.8443H14.6219V19.6001C14.6219 23.0196 17.4038 25.8018 20.8236 25.8018C24.2433 25.8018 27.0252 23.0198 27.0252 19.6001V16.8443H40.0796V19.6001C40.0796 23.0196 42.8615 25.8018 46.2812 25.8018C49.701 25.8018 52.4829 23.0198 52.4829 19.6001V16.8443H65.5373V19.6001C65.5373 23.0196 68.3192 25.8018 71.7389 25.8018C75.1584 25.8018 77.9406 23.0198 77.9406 19.6001V16.8443H86.4302C87.8976 16.8443 89.0914 18.0381 89.0914 19.5055V91.6149C89.0914 92.5736 89.8685 93.3504 90.827 93.3504C91.7854 93.3504 92.5625 92.5736 92.5625 91.6149V19.5055C92.5625 16.1242 89.8115 13.3732 86.4302 13.3732ZM23.5544 19.6001C23.5544 21.1059 22.3295 22.3307 20.8238 22.3307C19.3183 22.3307 18.0932 21.1059 18.0932 19.6001C18.0932 15.9006 18.0932 7.35964 18.0932 6.20169C18.0932 4.69593 19.318 3.47109 20.8238 3.47109C22.3295 3.47109 23.5544 4.69593 23.5544 6.20169V19.6001ZM49.0118 19.6001C49.0118 21.1059 47.787 22.3307 46.2812 22.3307C44.7755 22.3307 43.5507 21.1059 43.5507 19.6001C43.5507 15.9006 43.5507 7.35964 43.5507 6.20169C43.5507 4.69593 44.7755 3.47109 46.2812 3.47109C47.787 3.47109 49.0118 4.69593 49.0118 6.20169V19.6001ZM74.4695 19.6001C74.4695 21.1059 73.2447 22.3307 71.7389 22.3307C70.2332 22.3307 69.0084 21.1059 69.0084 19.6001C69.0084 15.9006 69.0084 7.35964 69.0084 6.20169C69.0084 4.69593 70.2332 3.47109 71.7389 3.47109C73.2445 3.47109 74.4695 4.69593 74.4695 6.20169V19.6001Z" fill="white"/>
<path d="M38.3541 52.1085H74.9163C77.9148 52.1085 80.3543 49.669 80.3543 46.6705C80.3543 43.6719 77.9148 41.2324 74.9163 41.2324H38.3541C35.3555 41.2324 32.916 43.6719 32.916 46.6705C32.916 49.669 35.3555 52.1085 38.3541 52.1085ZM38.3541 44.7035H74.9163C76.0009 44.7035 76.8832 45.5859 76.8832 46.6705C76.8832 47.7551 76.0009 48.6374 74.9163 48.6374H38.3541C37.2695 48.6374 36.3871 47.7551 36.3871 46.6705C36.3871 45.5859 37.2695 44.7035 38.3541 44.7035Z" fill="white"/>
<path d="M38.3541 75.0675H74.9163C77.9148 75.0675 80.3543 72.628 80.3543 69.6295C80.3543 66.6309 77.9148 64.1914 74.9163 64.1914H38.3541C35.3555 64.1914 32.916 66.6309 32.916 69.6295C32.916 72.628 35.3555 75.0675 38.3541 75.0675ZM38.3541 67.6625H74.9163C76.0009 67.6625 76.8832 68.5449 76.8832 69.6295C76.8832 70.7141 76.0009 71.5964 74.9163 71.5964H38.3541C37.2695 71.5964 36.3871 70.7141 36.3871 69.6295C36.3871 68.5449 37.2695 67.6625 38.3541 67.6625Z" fill="white"/>
<path d="M38.3541 98.0255H74.9163C77.9148 98.0255 80.3543 95.586 80.3543 92.5875C80.3543 89.5889 77.9148 87.1494 74.9163 87.1494H38.3541C35.3555 87.1494 32.916 89.5889 32.916 92.5875C32.916 95.586 35.3555 98.0255 38.3541 98.0255ZM38.3541 90.6205H74.9163C76.0009 90.6205 76.8832 91.5029 76.8832 92.5875C76.8832 93.6721 76.0009 94.5544 74.9163 94.5544H38.3541C37.2695 94.5544 36.3871 93.6721 36.3871 92.5875C36.3871 91.5029 37.2695 90.6205 38.3541 90.6205Z" fill="white"/>
</svg>
