<svg width="297" height="289" viewBox="0 0 297 289" fill="none" xmlns="http://www.w3.org/2000/svg">
<path d="M208.109 239.656L206.193 241.559L175.565 271.91C172.848 274.6 169.303 275.938 165.751 275.938C162.198 275.938 158.56 274.564 155.836 271.81C150.425 266.338 150.468 257.482 155.936 252.067L186.944 221.358L188.502 219.82C188.631 219.692 188.781 219.599 188.938 219.534C189.145 220.006 189.367 220.478 189.596 220.936C189.753 221.251 189.91 221.559 190.075 221.866L188.166 223.762L157.745 253.891C153.285 258.312 153.249 265.537 157.666 270C162.077 274.464 169.303 274.5 173.763 270.079L203.877 240.229L205.764 238.362C206.143 238.59 206.529 238.812 206.922 239.027C207.315 239.241 207.708 239.456 208.109 239.656Z" fill="#50AA57"/>
<path d="M186.859 191.33C186.624 192.174 186.409 193.033 186.223 193.898H176.881C176.173 193.898 175.602 193.326 175.602 192.618C175.602 191.909 176.173 191.33 176.881 191.33H186.859Z" fill="#50AA57"/>
<path d="M278.115 192.618C278.115 193.326 277.543 193.898 276.828 193.898H267.486C267.3 193.033 267.085 192.174 266.85 191.33H276.828C277.543 191.33 278.115 191.902 278.115 192.618Z" fill="#50AA57"/>
<path d="M188.453 218.411H175.151C174.443 218.411 173.871 217.832 173.871 217.124C173.871 216.415 174.443 215.836 175.151 215.836H187.488C187.781 216.709 188.102 217.567 188.453 218.411Z" fill="#50AA57"/>
<path d="M279.845 217.124C279.845 217.832 279.273 218.411 278.565 218.411H265.256C265.606 217.567 265.928 216.709 266.221 215.836H278.565C279.273 215.836 279.845 216.415 279.845 217.124Z" fill="#50AA57"/>
<path d="M261.49 155.42C261.49 156.129 260.911 156.708 260.203 156.708L239.317 156.737V162.91C238.474 162.638 237.616 162.395 236.744 162.187V155.449C236.744 154.741 237.323 154.169 238.031 154.161L260.203 154.133C260.911 154.133 261.49 154.712 261.49 155.42Z" fill="#50AA57"/>
<path d="M267.251 251.325C267.251 252.033 266.672 252.612 265.965 252.612L238.031 252.577C237.323 252.577 236.744 252.004 236.744 251.296V242.941C237.616 242.734 238.474 242.491 239.317 242.219V250.009L265.972 250.037C266.679 250.037 267.251 250.617 267.251 251.325Z" fill="#50AA57"/>
<path d="M217.374 155.449V162.087C216.509 162.288 215.651 162.516 214.807 162.781V156.737L193.921 156.708C193.207 156.708 192.635 156.129 192.635 155.42C192.635 154.712 193.214 154.133 193.921 154.133L216.094 154.161C216.802 154.169 217.374 154.741 217.374 155.449Z" fill="#50AA57"/>
<path d="M169.496 200.092C165.372 200.092 162.02 196.737 162.02 192.609C162.02 188.482 165.372 185.127 169.496 185.127C173.621 185.127 176.966 188.482 176.966 192.609C176.966 196.737 173.613 200.092 169.496 200.092ZM169.496 187.702C166.794 187.702 164.593 189.905 164.593 192.609C164.593 195.313 166.794 197.516 169.496 197.516C172.198 197.516 174.4 195.313 174.4 192.609C174.4 189.905 172.198 187.702 169.496 187.702Z" fill="#50AA57"/>
<path d="M175.916 217.124C175.916 222.388 171.642 226.666 166.381 226.666C161.12 226.666 156.846 222.388 156.846 217.124C156.846 211.859 161.127 207.581 166.381 207.581C171.635 207.581 175.916 211.859 175.916 217.124Z" fill="#50AA57"/>
<path d="M190.076 221.867L188.167 223.763C191.884 230.523 197.317 236.209 203.878 240.23L205.765 238.363C199.125 234.435 193.671 228.713 190.076 221.867ZM190.076 221.867L188.167 223.763C191.884 230.523 197.317 236.209 203.878 240.23L205.765 238.363C199.125 234.435 193.671 228.713 190.076 221.867ZM190.076 221.867L188.167 223.763C191.884 230.523 197.317 236.209 203.878 240.23L205.765 238.363C199.125 234.435 193.671 228.713 190.076 221.867ZM190.076 221.867L188.167 223.763C191.884 230.523 197.317 236.209 203.878 240.23L205.765 238.363C199.125 234.435 193.671 228.713 190.076 221.867ZM270.103 193.898C269.932 193.032 269.739 192.174 269.51 191.33C265.593 176.422 254.049 164.569 239.318 160.22C238.474 159.97 237.609 159.741 236.744 159.541C233.563 158.811 230.254 158.425 226.852 158.425C223.449 158.425 220.426 158.782 217.374 159.455C216.509 159.641 215.651 159.855 214.807 160.092C199.883 164.348 188.153 176.279 184.193 191.33C183.964 192.174 183.771 193.032 183.6 193.898C183.035 196.702 182.742 199.599 182.742 202.568C182.742 207.189 183.457 211.645 184.779 215.837C185.051 216.71 185.358 217.568 185.687 218.412C186.066 219.414 186.488 220.394 186.945 221.359C187.138 221.767 187.338 222.175 187.538 222.582C187.746 222.976 187.953 223.369 188.167 223.763C191.884 230.523 197.317 236.209 203.878 240.23C204.257 240.466 204.636 240.695 205.022 240.909C205.408 241.138 205.801 241.353 206.194 241.56C212.363 244.851 219.396 246.71 226.852 246.71C230.254 246.71 233.563 246.324 236.744 245.594C237.609 245.394 238.474 245.165 239.318 244.908C252.491 241.024 263.12 231.131 268.016 218.412C268.352 217.568 268.652 216.71 268.924 215.837C270.246 211.645 270.961 207.189 270.961 202.568C270.961 199.599 270.668 196.702 270.103 193.898ZM265.257 218.412C260.59 229.714 251.069 238.52 239.318 242.218C238.474 242.49 237.616 242.733 236.744 242.941C233.578 243.72 230.261 244.135 226.852 244.135C220.111 244.135 213.742 242.519 208.11 239.657C207.71 239.457 207.317 239.242 206.923 239.028C206.53 238.813 206.144 238.591 205.765 238.363C199.125 234.435 193.671 228.713 190.076 221.867C189.912 221.56 189.754 221.252 189.597 220.937C189.368 220.479 189.147 220.007 188.939 219.535C188.768 219.163 188.611 218.791 188.453 218.412C188.103 217.568 187.781 216.71 187.488 215.837C186.08 211.667 185.315 207.203 185.315 202.568C185.315 199.599 185.63 196.695 186.223 193.898C186.409 193.032 186.623 192.174 186.859 191.33C190.683 177.696 201.305 166.88 214.807 162.781C215.651 162.516 216.509 162.288 217.374 162.087C220.419 161.372 223.592 160.993 226.852 160.993C230.111 160.993 233.578 161.408 236.744 162.187C237.616 162.395 238.474 162.638 239.318 162.91C252.627 167.102 263.063 177.832 266.851 191.33C267.087 192.174 267.301 193.032 267.487 193.898C268.081 196.695 268.395 199.599 268.395 202.568C268.395 207.203 267.63 211.667 266.222 215.837C265.929 216.71 265.607 217.568 265.257 218.412ZM190.076 221.867L188.167 223.763C191.884 230.523 197.317 236.209 203.878 240.23L205.765 238.363C199.125 234.435 193.671 228.713 190.076 221.867ZM190.076 221.867L188.167 223.763C191.884 230.523 197.317 236.209 203.878 240.23L205.765 238.363C199.125 234.435 193.671 228.713 190.076 221.867ZM190.076 221.867L188.167 223.763C191.884 230.523 197.317 236.209 203.878 240.23L205.765 238.363C199.125 234.435 193.671 228.713 190.076 221.867ZM190.076 221.867L188.167 223.763C191.884 230.523 197.317 236.209 203.878 240.23L205.765 238.363C199.125 234.435 193.671 228.713 190.076 221.867Z" fill="#50AA57"/>
<path d="M287.328 226.666C282.067 226.666 277.793 222.381 277.793 217.124C277.793 211.866 282.067 207.581 287.328 207.581C292.589 207.581 296.863 211.866 296.863 217.124C296.863 222.381 292.582 226.666 287.328 226.666ZM287.328 210.149C283.483 210.149 280.359 213.275 280.359 217.124C280.359 220.972 283.483 224.098 287.328 224.098C291.174 224.098 294.297 220.972 294.297 217.124C294.297 213.275 291.174 210.149 287.328 210.149Z" fill="#50AA57"/>
<path d="M256.586 155.155C256.586 159.719 260.281 163.417 264.842 163.417C269.402 163.417 273.098 159.719 273.098 155.155C273.098 150.591 269.402 146.9 264.842 146.9C260.281 146.9 256.586 150.599 256.586 155.155Z" fill="#50AA57"/>
<path d="M264.836 164.697C259.575 164.697 255.301 160.412 255.301 155.155C255.301 149.897 259.582 145.612 264.836 145.612C270.09 145.612 274.371 149.89 274.371 155.155C274.371 160.42 270.09 164.697 264.836 164.697ZM264.836 148.18C260.99 148.18 257.867 151.306 257.867 155.155C257.867 159.003 260.99 162.129 264.836 162.129C268.682 162.129 271.805 159.003 271.805 155.155C271.805 151.306 268.682 148.18 264.836 148.18Z" fill="#50AA57"/>
<path d="M274.734 261.131C269.474 261.131 265.199 256.853 265.199 251.588C265.199 246.324 269.474 242.046 274.734 242.046C279.995 242.046 284.27 246.331 284.27 251.588C284.27 256.846 279.988 261.131 274.734 261.131ZM274.734 244.614C270.889 244.614 267.765 247.74 267.765 251.588C267.765 255.437 270.889 258.563 274.734 258.563C278.58 258.563 281.704 255.437 281.704 251.588C281.704 247.74 278.58 244.614 274.734 244.614Z" fill="#50AA57"/>
<path d="M276.594 192.617C276.594 196.036 279.367 198.811 282.784 198.811C286.2 198.811 288.974 196.036 288.974 192.617C288.974 189.197 286.2 186.422 282.784 186.422C279.367 186.422 276.594 189.197 276.594 192.617Z" fill="#50AA57"/>
<path d="M185.15 164.962C179.89 164.962 175.615 160.684 175.615 155.419C175.615 150.155 179.89 145.877 185.15 145.877C190.411 145.877 194.686 150.162 194.686 155.419C194.686 160.677 190.404 164.962 185.15 164.962ZM185.15 148.445C181.305 148.445 178.181 151.571 178.181 155.419C178.181 159.268 181.305 162.394 185.15 162.394C188.996 162.394 192.12 159.268 192.12 155.419C192.12 151.571 188.996 148.445 185.15 148.445Z" fill="#50AA57"/>
<path d="M238.475 189.062H215.23C214.522 189.062 213.943 188.489 213.943 187.774C213.943 187.059 214.515 186.486 215.23 186.486H238.475C239.182 186.486 239.761 187.059 239.761 187.774C239.761 188.489 239.19 189.062 238.475 189.062Z" fill="#50AA57"/>
<path d="M226.973 203.854H205.873C205.165 203.854 204.586 203.281 204.586 202.566C204.586 201.851 205.158 201.278 205.873 201.278H226.973C227.681 201.278 228.26 201.851 228.26 202.566C228.26 203.281 227.688 203.854 226.973 203.854Z" fill="#50AA57"/>
<path d="M247.832 203.854H237.968C237.261 203.854 236.682 203.281 236.682 202.566C236.682 201.851 237.253 201.278 237.968 201.278H247.832C248.54 201.278 249.119 201.851 249.119 202.566C249.119 203.281 248.547 203.854 247.832 203.854Z" fill="#50AA57"/>
<path d="M237.823 218.641H215.886C215.179 218.641 214.6 218.068 214.6 217.353C214.6 216.638 215.171 216.065 215.886 216.065H237.823C238.531 216.065 239.11 216.638 239.11 217.353C239.11 218.068 238.538 218.641 237.823 218.641Z" fill="#50AA57"/>
<path d="M58.3549 103.009L36.9757 102.937C36.4539 102.937 35.9892 102.622 35.7891 102.136C35.5961 101.657 35.7033 101.099 36.075 100.734L43.4373 93.4949L36.0679 86.1199C35.7033 85.7551 35.589 85.1971 35.7891 84.7178C35.9892 84.2386 36.4539 83.9238 36.9757 83.9238H47.4258C48.1335 83.9238 48.7124 84.4961 48.7124 85.2114C48.7124 85.9267 48.1406 86.499 47.4258 86.499H40.0707L46.1607 92.5936C46.4037 92.8368 46.5395 93.1658 46.5395 93.5092C46.5395 93.8526 46.4037 94.1816 46.1535 94.4177L40.0993 100.376L57.8188 100.434L64.7451 93.5021L57.7473 86.499H56.1105C55.4028 86.499 54.8239 85.9267 54.8239 85.2114C54.8239 84.4961 55.3957 83.9238 56.1105 83.9238H58.2834C58.6265 83.9238 58.9482 84.0597 59.1912 84.303L67.4756 92.5936C67.9759 93.0943 67.9759 93.9098 67.4756 94.4105L59.2627 102.63C59.0197 102.873 58.698 103.009 58.3549 103.009Z" fill="#50AA57"/>
<path d="M91.2416 103.006H89.762C89.0544 103.006 88.4754 102.427 88.4826 101.719C88.4826 101.011 89.0615 100.438 89.7692 100.438H90.7127L97.639 93.5069L90.6412 86.5039H72.9645L79.0545 92.5985C79.2975 92.8417 79.4334 93.1707 79.4334 93.5141C79.4334 93.8575 79.2904 94.1865 79.0474 94.4226L72.9931 100.381L81.0845 100.41C81.7922 100.41 82.364 100.989 82.364 101.697C82.364 102.406 81.785 102.978 81.0774 102.978L69.8624 102.942C69.3406 102.942 68.876 102.627 68.6758 102.141C68.4828 101.662 68.5972 101.104 68.9617 100.739L76.324 93.4998L68.9546 86.1248C68.5901 85.7599 68.4757 85.202 68.6758 84.7227C68.876 84.2435 69.3406 83.9287 69.8624 83.9287H91.1702C91.5132 83.9287 91.8349 84.0646 92.0779 84.3078L100.362 92.5985C100.863 93.0992 100.863 93.9147 100.362 94.4154L92.1494 102.635C91.9064 102.878 91.5847 103.014 91.2416 103.014V103.006Z" fill="#50AA57"/>
<path d="M51.7729 94.7742C51.0653 94.7742 50.4863 94.2019 50.4863 93.4866V54.9233C50.4863 54.2152 51.0582 53.6357 51.7729 53.6357C52.4877 53.6357 53.0596 54.208 53.0596 54.9233V93.4866C53.0596 94.1948 52.4877 94.7742 51.7729 94.7742Z" fill="#50AA57"/>
<path d="M51.7719 56.2026C45.8463 56.2026 41.0215 51.3741 41.0215 45.4441C41.0215 39.514 45.8463 34.6855 51.7719 34.6855C57.6974 34.6855 62.5223 39.514 62.5223 45.4441C62.5223 51.3741 57.6974 56.2026 51.7719 56.2026ZM51.7719 37.2607C47.2616 37.2607 43.5947 40.9303 43.5947 45.4441C43.5947 49.9578 47.2616 53.6274 51.7719 53.6274C56.2822 53.6274 59.949 49.9578 59.949 45.4441C59.949 40.9303 56.2822 37.2607 51.7719 37.2607Z" fill="#50AA57"/>
<path d="M85.896 133.337C85.1883 133.337 84.6094 132.764 84.6094 132.049V93.4858C84.6094 92.7777 85.1812 92.1982 85.896 92.1982C86.6108 92.1982 87.1826 92.7705 87.1826 93.4858V132.049C87.1826 132.757 86.6108 133.337 85.896 133.337Z" fill="#50AA57"/>
<path d="M85.8949 152.28C79.9693 152.28 75.1445 147.451 75.1445 141.521C75.1445 135.591 79.9693 130.763 85.8949 130.763C91.8205 130.763 96.6453 135.591 96.6453 141.521C96.6453 147.451 91.8205 152.28 85.8949 152.28ZM85.8949 133.338C81.3846 133.338 77.7178 137.008 77.7178 141.521C77.7178 146.035 81.3846 149.705 85.8949 149.705C90.4052 149.705 94.0721 146.035 94.0721 141.521C94.0721 137.008 90.4052 133.338 85.8949 133.338Z" fill="#50AA57"/>
<path d="M117.554 94.7468C116.847 94.7468 116.268 94.1746 116.268 93.4593V54.896C116.268 54.1878 116.839 53.6084 117.554 53.6084C118.269 53.6084 118.841 54.1807 118.841 54.896V93.4593C118.841 94.1674 118.269 94.7468 117.554 94.7468Z" fill="#50AA57"/>
<path d="M117.553 56.1811C111.628 56.1811 106.803 51.3526 106.803 45.4226C106.803 39.4925 111.628 34.6641 117.553 34.6641C123.479 34.6641 128.304 39.4925 128.304 45.4226C128.304 51.3526 123.479 56.1811 117.553 56.1811ZM117.553 37.2392C113.043 37.2392 109.376 40.9089 109.376 45.4226C109.376 49.9363 113.043 53.6059 117.553 53.6059C122.063 53.6059 125.73 49.9363 125.73 45.4226C125.73 40.9089 122.063 37.2392 117.553 37.2392Z" fill="#50AA57"/>
<path d="M151.42 152.28C145.495 152.28 140.67 147.451 140.67 141.521C140.67 135.591 145.495 130.763 151.42 130.763C157.346 130.763 162.171 135.591 162.171 141.521C162.171 147.451 157.346 152.28 151.42 152.28ZM151.42 133.338C146.91 133.338 143.243 137.008 143.243 141.521C143.243 146.035 146.91 149.705 151.42 149.705C155.931 149.705 159.597 146.035 159.597 141.521C159.597 137.008 155.931 133.338 151.42 133.338Z" fill="#50AA57"/>
<path d="M189.917 103.009L168.538 102.937C168.016 102.937 167.552 102.622 167.352 102.136C167.159 101.657 167.266 101.099 167.638 100.734L175 93.4949L167.63 86.1199C167.266 85.7551 167.151 85.1971 167.352 84.7178C167.552 84.2386 168.016 83.9238 168.538 83.9238H189.846C190.189 83.9238 190.511 84.0597 190.754 84.303L199.038 92.5936C199.538 93.0943 199.538 93.9098 199.038 94.4105L190.825 102.63C190.582 102.873 190.261 103.009 189.917 103.009ZM171.669 100.376L189.388 100.434L196.315 93.5021L189.317 86.499H171.64L177.73 92.5936C177.973 92.8368 178.109 93.1658 178.109 93.5092C178.109 93.8526 177.966 94.1816 177.723 94.4177L171.669 100.376Z" fill="#50AA57"/>
<path d="M183.335 82.0056C182.628 82.0056 182.049 81.4333 182.049 80.718V54.9233C182.049 54.2152 182.621 53.6357 183.335 53.6357C184.05 53.6357 184.622 54.208 184.622 54.9233V80.718C184.622 81.4262 184.05 82.0056 183.335 82.0056Z" fill="#50AA57"/>
<path d="M192.535 58.0631C191.999 58.0631 191.499 57.7268 191.32 57.1904C191.091 56.5179 191.449 55.7883 192.121 55.5594C203.136 51.8039 210.534 41.446 210.534 29.7934C210.534 14.7858 198.332 2.57518 183.336 2.57518C168.34 2.57518 156.138 14.7858 156.138 29.7934C156.138 41.353 163.458 51.6823 174.358 55.4879C175.03 55.7239 175.38 56.4536 175.145 57.126C174.909 57.7984 174.18 58.1489 173.508 57.9128C161.585 53.7425 153.572 42.4403 153.572 29.7862C153.572 13.3623 166.924 0 183.336 0C199.747 0 213.1 13.3623 213.1 29.7862C213.1 42.5405 205.001 53.8712 192.95 57.9844C192.814 58.0344 192.671 58.0559 192.535 58.0559V58.0631Z" fill="#50AA57"/>
<path d="M124.136 103.002L102.757 102.93C102.235 102.93 101.77 102.616 101.57 102.129C101.377 101.65 101.485 101.092 101.856 100.727L109.219 93.4881L101.849 86.113C101.485 85.7482 101.37 85.1903 101.57 84.711C101.77 84.2317 102.235 83.917 102.757 83.917H113.207C113.915 83.917 114.494 84.4893 114.494 85.2046C114.494 85.9199 113.922 86.4922 113.207 86.4922H105.852L111.942 92.5868C112.185 92.83 112.321 93.159 112.321 93.5024C112.321 93.8457 112.178 94.1748 111.935 94.4108L105.881 100.369L123.6 100.427L130.526 93.4952L123.529 86.4922H121.892C121.184 86.4922 120.605 85.9199 120.605 85.2046C120.605 84.4893 121.177 83.917 121.892 83.917H124.065C124.408 83.917 124.729 84.0529 124.972 84.2961L133.257 92.5868C133.757 93.0875 133.757 93.9029 133.257 94.4037L125.044 102.623C124.801 102.866 124.479 103.002 124.136 103.002Z" fill="#50AA57"/>
<path d="M157.025 103.002H155.545C154.838 103.002 154.259 102.422 154.266 101.714C154.266 101.006 154.845 100.434 155.552 100.434H156.496L163.422 93.5021L156.424 86.499H138.748L144.838 92.5936C145.081 92.8368 145.217 93.1658 145.217 93.5092C145.217 93.8526 145.074 94.1816 144.831 94.4177L138.776 100.376L146.868 100.405C147.575 100.405 148.147 100.984 148.147 101.693C148.147 102.401 147.568 102.973 146.861 102.973L135.646 102.937C135.124 102.937 134.659 102.622 134.459 102.136C134.266 101.657 134.38 101.099 134.745 100.734L142.107 93.4949L134.738 86.1199C134.373 85.7551 134.259 85.1971 134.459 84.7178C134.659 84.2386 135.124 83.9238 135.646 83.9238H156.953C157.296 83.9238 157.618 84.0597 157.861 84.303L166.146 92.5936C166.646 93.0943 166.646 93.9098 166.146 94.4105L157.933 102.63C157.69 102.873 157.368 103.009 157.025 103.009V103.002Z" fill="#50AA57"/>
<path d="M151.419 133.337C150.712 133.337 150.133 132.764 150.133 132.049V93.4858C150.133 92.7777 150.705 92.1982 151.419 92.1982C152.134 92.1982 152.706 92.7705 152.706 93.4858V132.049C152.706 132.757 152.134 133.337 151.419 133.337Z" fill="#50AA57"/>
<path d="M177.188 45.0748C175.68 45.0748 174.244 44.4883 173.179 43.4296L165.337 35.5824C164.265 34.5095 163.672 33.0788 163.672 31.5552C163.672 30.0315 164.265 28.608 165.337 27.5279C166.41 26.4549 167.839 25.8612 169.354 25.8612C170.87 25.8612 172.299 26.4549 173.379 27.5279L177.567 31.7197L193.271 16.004C195.487 13.7864 199.097 13.7864 201.313 16.004C203.528 18.2215 203.528 21.8339 201.313 24.0514L181.963 43.4153C180.812 44.5669 179.218 45.1607 177.567 45.0534C177.439 45.0605 177.31 45.0677 177.181 45.0677L177.188 45.0748ZM169.362 28.4363C168.525 28.4363 167.746 28.7582 167.16 29.3519C166.574 29.9385 166.245 30.7254 166.245 31.5552C166.245 32.3849 166.567 33.1718 167.16 33.7584L175.001 41.6055C175.637 42.2421 176.538 42.5712 177.474 42.4853C177.546 42.4853 177.617 42.4853 177.689 42.4853C178.625 42.564 179.519 42.2421 180.162 41.6055L199.511 22.2416C200.726 21.0255 200.726 19.0441 199.511 17.828C198.296 16.612 196.316 16.612 195.101 17.828L178.489 34.4522C177.989 34.953 177.174 34.953 176.674 34.4522L171.577 29.3519C170.991 28.7654 170.205 28.4363 169.376 28.4363H169.362Z" fill="#50AA57"/>
<path d="M106.853 288.177H12.7661C5.72544 288.177 0 282.447 0 275.401V181.243C0 174.197 5.72544 168.467 12.7661 168.467H106.853C113.894 168.467 119.619 174.197 119.619 181.243V212.889C119.619 213.597 119.048 214.176 118.333 214.176C117.618 214.176 117.046 213.604 117.046 212.889V181.243C117.046 175.613 112.472 171.042 106.853 171.042H12.7661C7.14072 171.042 2.57323 175.62 2.57323 181.243V275.401C2.57323 281.031 7.14786 285.602 12.7661 285.602H106.853C112.479 285.602 117.046 281.023 117.046 275.401V266.309C117.046 265.601 117.618 265.022 118.333 265.022C119.048 265.022 119.619 265.594 119.619 266.309V275.401C119.619 282.447 113.894 288.177 106.853 288.177Z" fill="#50AA57"/>
<path d="M67.1814 200.45H24.0083C22.4429 200.45 21.1777 199.177 21.1777 197.617V186.666C21.1777 185.099 22.4501 183.833 24.0083 183.833H37.1675C37.289 183.833 37.3962 183.754 37.4177 183.654C38.1253 179.691 41.5634 176.809 45.5948 176.809C49.6262 176.809 53.0644 179.684 53.772 183.654C53.7934 183.754 53.9007 183.833 54.0222 183.833H67.1814C68.7468 183.833 70.0119 185.106 70.0119 186.666V197.617C70.0119 199.184 68.7396 200.45 67.1814 200.45ZM24.0083 186.401C23.8653 186.401 23.7438 186.523 23.7438 186.666V197.617C23.7438 197.761 23.8653 197.882 24.0083 197.882H67.1814C67.3243 197.882 67.4459 197.761 67.4459 197.617V186.666C67.4459 186.523 67.3243 186.401 67.1814 186.401H54.0222C52.6498 186.401 51.4847 185.435 51.2416 184.098C50.7556 181.358 48.3825 179.377 45.5948 179.377C42.8072 179.377 40.4341 181.365 39.948 184.098C39.7121 185.428 38.5399 186.401 37.1675 186.401H24.0083Z" fill="#50AA57"/>
<path d="M74.6457 274.475H16.5479C14.0176 274.475 11.959 272.415 11.959 269.883V195.646C11.959 193.114 14.0176 191.054 16.5479 191.054H74.6386C77.1689 191.054 79.2347 193.114 79.2347 195.646V213.958C79.2347 214.667 78.6628 215.246 77.9481 215.246C77.2333 215.246 76.6614 214.674 76.6614 213.958V195.646C76.6614 194.53 75.7537 193.622 74.6386 193.622H16.5479C15.4328 193.622 14.5251 194.53 14.5251 195.646V269.883C14.5251 270.999 15.4328 271.907 16.5479 271.907H74.6386C75.7537 271.907 76.6614 270.999 76.6614 269.883V263.316C76.6614 262.608 77.2333 262.028 77.9481 262.028C78.6628 262.028 79.2347 262.601 79.2347 263.316V269.883C79.2347 272.415 77.1761 274.475 74.6457 274.475Z" fill="#50AA57"/>
<path d="M96.1736 270.611C89.2688 270.611 82.707 268.444 77.1817 264.352C69.0689 258.343 64.2227 248.736 64.2227 238.636C64.2227 228.536 69.0689 218.922 77.1817 212.92C81.306 209.858 86.1737 207.82 91.2559 207.026C91.9564 206.918 92.614 207.398 92.7212 208.099C92.8284 208.8 92.3495 209.458 91.649 209.565C86.9743 210.295 82.4926 212.169 78.7042 214.987C71.2419 220.503 66.7816 229.344 66.7816 238.636C66.7816 247.928 71.2347 256.755 78.6971 262.285C83.7792 266.055 89.812 268.043 96.1593 268.043C103.75 268.043 110.955 265.16 116.438 259.931C122.313 254.323 125.551 246.762 125.551 238.643C125.551 224.265 114.865 211.768 100.691 209.572C99.9906 209.465 99.5116 208.807 99.6189 208.106C99.7261 207.405 100.377 206.926 101.084 207.033C108.539 208.185 115.38 211.99 120.348 217.734C125.365 223.535 128.125 230.968 128.125 238.643C128.125 247.47 124.608 255.697 118.218 261.791C112.256 267.478 104.422 270.611 96.1664 270.611H96.1736Z" fill="#50AA57"/>
<path d="M96.1744 254.773C87.2897 254.773 80.0703 247.548 80.0703 238.664C80.0703 230.81 85.6742 224.136 93.4011 222.791C94.1016 222.669 94.7663 223.141 94.8878 223.835C95.0093 224.536 94.5447 225.201 93.8442 225.323C87.354 226.453 82.6435 232.061 82.6435 238.664C82.6435 246.132 88.7192 252.205 96.1816 252.205C103.644 252.205 109.72 246.132 109.72 238.664C109.72 232.061 105.009 226.453 98.5261 225.323C97.8256 225.201 97.361 224.536 97.4825 223.835C97.604 223.134 98.2688 222.669 98.9693 222.791C106.689 224.136 112.293 230.81 112.293 238.664C112.293 247.548 105.066 254.773 96.1887 254.773H96.1744Z" fill="#50AA57"/>
<path d="M96.1821 227.22C96.0677 227.22 95.9605 227.22 95.8461 227.206C93.9162 227.077 92.4294 225.904 92.2293 224.352L89.6704 204.487C89.5274 203.357 89.8705 202.205 90.6496 201.261C91.7432 199.93 93.5517 199.093 95.6031 198.958C99.2128 198.721 102.315 200.703 102.672 203.471C102.715 203.793 102.715 204.137 102.672 204.48C102.672 204.48 102.672 204.48 102.672 204.487L100.113 224.359C99.899 226.011 98.1978 227.227 96.1749 227.227L96.1821 227.22ZM96.1821 201.504C96.0463 201.504 95.9105 201.504 95.7746 201.518C94.4451 201.604 93.2657 202.119 92.6296 202.892C92.2936 203.3 92.1578 203.722 92.2079 204.158L94.7668 224.03C94.7882 224.187 95.1814 224.595 96.0034 224.645C96.8969 224.702 97.533 224.273 97.5688 224.023L100.128 204.158C100.142 204.036 100.142 203.9 100.128 203.793C99.9847 202.656 98.355 201.497 96.1821 201.497V201.504Z" fill="#50AA57"/>
<path d="M131.848 239.914H121.105C120.397 239.914 119.818 239.342 119.818 238.626C119.818 237.911 120.39 237.339 121.105 237.339H131.848C132.556 237.339 133.135 237.911 133.135 238.626C133.135 239.342 132.563 239.914 131.848 239.914Z" fill="#50AA57"/>
<path d="M71.2499 239.914H60.4995C59.7919 239.914 59.2129 239.342 59.2129 238.626C59.2129 237.911 59.7847 237.339 60.4995 237.339H71.2499C71.9575 237.339 72.5365 237.911 72.5365 238.626C72.5365 239.342 71.9647 239.914 71.2499 239.914Z" fill="#50AA57"/>
<path d="M96.1733 275.625C95.4657 275.625 94.8867 275.053 94.8867 274.338V264.294C94.8867 263.586 95.4585 263.007 96.1733 263.007C96.8881 263.007 97.46 263.579 97.46 264.294V274.338C97.46 275.046 96.8881 275.625 96.1733 275.625Z" fill="#50AA57"/>
<path d="M26.2547 225.337C25.5471 225.337 24.9681 224.765 24.9681 224.05V215.523L22.2948 218.799C21.8445 219.35 21.0368 219.429 20.4864 218.978C19.936 218.527 19.8574 217.719 20.3077 217.168L25.2612 211.102C25.6043 210.68 26.1761 210.523 26.6836 210.702C27.1983 210.888 27.5342 211.367 27.5342 211.911V224.035C27.5342 224.744 26.9624 225.323 26.2476 225.323L26.2547 225.337Z" fill="#50AA57"/>
<path d="M29.9988 256.519H22.8938C22.3506 256.519 21.8645 256.176 21.6858 255.661C21.5071 255.146 21.6644 254.574 22.0933 254.23L22.1504 254.188C23.4942 253.1 24.7308 251.898 25.8101 250.618C26.5678 249.724 28.5764 247.342 27.9617 245.732C27.7329 245.139 27.2755 244.423 26.382 244.388C25.6672 244.366 24.8094 244.638 23.9946 245.16C23.3942 245.539 22.6008 245.368 22.2219 244.774C21.8359 244.173 22.0146 243.379 22.6079 243C23.4942 242.435 24.8738 241.769 26.4677 241.827C28.2118 241.884 29.6628 243.007 30.3562 244.817C31.5141 247.843 28.8837 250.954 27.7615 252.278C27.2755 252.85 26.768 253.408 26.2319 253.951H29.9916C30.6993 253.951 31.2783 254.524 31.2783 255.239C31.2783 255.954 30.7064 256.527 29.9916 256.527L29.9988 256.519Z" fill="#50AA57"/>
<path d="M56.0113 219.149H36.519C35.8114 219.149 35.2324 218.577 35.2324 217.862C35.2324 217.146 35.8043 216.574 36.519 216.574H56.0113C56.7189 216.574 57.2979 217.146 57.2979 217.862C57.2979 218.577 56.726 219.149 56.0113 219.149Z" fill="#50AA57"/>
<path d="M56.0113 251.782H36.519C35.8114 251.782 35.2324 251.21 35.2324 250.495C35.2324 249.779 35.8043 249.207 36.519 249.207H56.0113C56.7189 249.207 57.2979 249.779 57.2979 250.495C57.2979 251.21 56.726 251.782 56.0113 251.782Z" fill="#50AA57"/>
</svg>
