<svg width="273" height="257" viewBox="0 0 273 257" fill="none" xmlns="http://www.w3.org/2000/svg">
<g clip-path="url(#clip0_379_4287)">
<path d="M253.715 231.139H170.668C167.922 231.139 165.686 228.902 165.686 226.156V177.972C165.686 175.227 167.922 172.99 170.668 172.99H253.715C256.461 172.99 258.698 175.227 258.698 177.972V226.156C258.698 228.902 256.461 231.139 253.715 231.139ZM170.668 175.766C169.45 175.766 168.462 176.754 168.462 177.972V226.156C168.462 227.375 169.45 228.362 170.668 228.362H253.715C254.934 228.362 255.921 227.375 255.921 226.156V177.972C255.921 176.754 254.934 175.766 253.715 175.766H170.668Z" fill="#50AA57"/>
<path d="M255.636 188.184H167.236C166.472 188.184 165.848 187.567 165.848 186.796C165.848 186.025 166.465 185.408 167.236 185.408H255.636C256.4 185.408 257.024 186.025 257.024 186.796C257.024 187.567 256.407 188.184 255.636 188.184Z" fill="#50AA57"/>
<path d="M238.413 224.32H231.957C231.193 224.32 230.568 223.703 230.568 222.932V192.566C230.568 191.802 231.185 191.177 231.957 191.177H238.413C239.176 191.177 239.801 191.794 239.801 192.566V222.932C239.801 223.696 239.184 224.32 238.413 224.32ZM233.345 221.551H237.024V193.954H233.345V221.551Z" fill="#50AA57"/>
<path d="M223.348 224.32H216.892C216.129 224.32 215.504 223.703 215.504 222.932V200.571C215.504 199.808 216.121 199.183 216.892 199.183H223.348C224.112 199.183 224.736 199.8 224.736 200.571V222.932C224.736 223.695 224.119 224.32 223.348 224.32ZM218.281 221.551H221.96V201.96H218.281V221.551Z" fill="#50AA57"/>
<path d="M208.401 224.32H201.945C201.181 224.32 200.557 223.703 200.557 222.932V210.421C200.557 209.657 201.174 209.033 201.945 209.033H208.401C209.164 209.033 209.789 209.65 209.789 210.421V222.932C209.789 223.695 209.172 224.32 208.401 224.32ZM203.333 221.551H207.013V211.817H203.333V221.551Z" fill="#50AA57"/>
<path d="M189.132 207.629C188.855 207.629 188.569 207.544 188.33 207.367L179.992 201.389C179.367 200.942 179.229 200.078 179.676 199.453C180.123 198.828 180.987 198.69 181.612 199.137L189.95 205.115C190.575 205.562 190.713 206.426 190.266 207.051C189.996 207.429 189.572 207.629 189.14 207.629H189.132Z" fill="#50AA57"/>
<path d="M181.357 217.556C180.933 217.556 180.524 217.363 180.247 217.001C179.784 216.391 179.907 215.52 180.524 215.057L188.87 208.771C189.479 208.308 190.351 208.431 190.814 209.048C191.277 209.658 191.153 210.529 190.544 210.992L182.198 217.278C181.951 217.463 181.658 217.556 181.365 217.556H181.357Z" fill="#50AA57"/>
<path d="M187.012 207.745C187.012 210.182 189.009 212.164 191.47 212.164C193.93 212.164 195.928 210.19 195.928 207.745C195.928 205.3 193.93 203.325 191.47 203.325C189.009 203.325 187.012 205.3 187.012 207.745Z" fill="#50AA57"/>
<path d="M191.47 213.553C188.246 213.553 185.631 210.946 185.631 207.752C185.631 204.559 188.253 201.952 191.47 201.952C194.686 201.952 197.309 204.559 197.309 207.752C197.309 210.946 194.686 213.553 191.47 213.553ZM191.47 204.721C189.773 204.721 188.4 206.079 188.4 207.752C188.4 209.426 189.781 210.784 191.47 210.784C193.159 210.784 194.54 209.426 194.54 207.752C194.54 206.079 193.159 204.721 191.47 204.721Z" fill="#50AA57"/>
<path d="M174.115 198.605C174.115 201.042 176.113 203.024 178.573 203.024C181.034 203.024 183.032 201.05 183.032 198.605C183.032 196.16 181.034 194.185 178.573 194.185C176.113 194.185 174.115 196.16 174.115 198.605Z" fill="#50AA57"/>
<path d="M178.573 204.405C175.349 204.405 172.734 201.798 172.734 198.605C172.734 195.412 175.357 192.805 178.573 192.805C181.79 192.805 184.412 195.412 184.412 198.605C184.412 201.798 181.79 204.405 178.573 204.405ZM178.573 195.574C176.876 195.574 175.503 196.931 175.503 198.605C175.503 200.279 176.884 201.636 178.573 201.636C180.262 201.636 181.643 200.279 181.643 198.605C181.643 196.931 180.262 195.574 178.573 195.574Z" fill="#50AA57"/>
<path d="M174.115 217.602C174.115 220.04 176.113 222.022 178.573 222.022C181.034 222.022 183.032 220.047 183.032 217.602C183.032 215.157 181.034 213.183 178.573 213.183C176.113 213.183 174.115 215.157 174.115 217.602Z" fill="#50AA57"/>
<path d="M178.573 223.402C175.349 223.402 172.734 220.795 172.734 217.602C172.734 214.409 175.357 211.802 178.573 211.802C181.79 211.802 184.412 214.409 184.412 217.602C184.412 220.795 181.79 223.402 178.573 223.402ZM178.573 214.571C176.876 214.571 175.503 215.928 175.503 217.602C175.503 219.276 176.884 220.633 178.573 220.633C180.262 220.633 181.643 219.276 181.643 217.602C181.643 215.928 180.262 214.571 178.573 214.571Z" fill="#50AA57"/>
<path d="M269.11 108.724V140.687C268.81 140.463 268.447 140.332 268.046 140.332H266.334V108.724C266.334 108.307 266.102 108.061 266.002 108.061H219.284C218.89 108.061 218.451 108.57 218.451 109.31V140.332H217.803C216.815 140.332 216.006 141.142 216.006 142.129V142.685C215.797 142.446 215.682 142.137 215.682 141.805V109.31C215.682 107.089 217.294 105.292 219.284 105.292H266.002C267.714 105.292 269.11 106.826 269.11 108.724Z" fill="#50AA57"/>
<path d="M269.11 137.695C268.771 137.61 268.416 137.563 268.046 137.563H251.162C250.398 137.563 249.773 138.181 249.773 138.944V140.788H236.083V138.944C236.083 138.181 235.458 137.563 234.694 137.563H217.802C217.039 137.563 216.314 137.749 215.681 138.088C214.231 138.852 213.236 140.371 213.236 142.13V143.865C213.236 146.387 215.288 148.439 217.802 148.439H268.046C270.56 148.439 272.612 146.387 272.612 143.865V142.13C272.612 139.978 271.115 138.173 269.11 137.695ZM269.843 143.865C269.843 144.86 269.033 145.67 268.046 145.67H217.802C216.815 145.67 216.005 144.86 216.005 143.865V142.13C216.005 141.142 216.815 140.332 217.802 140.332H233.306V142.168C233.306 142.94 233.931 143.557 234.694 143.557H251.162C251.925 143.557 252.55 142.94 252.55 142.168V140.332H268.046C268.447 140.332 268.809 140.464 269.11 140.687C269.557 141.011 269.843 141.543 269.843 142.13V143.865Z" fill="#50AA57"/>
<path d="M258.22 130.668H224.66C223.896 130.668 223.271 130.051 223.271 129.279C223.271 128.508 223.889 127.891 224.66 127.891H256.839L256.901 117.448C256.901 116.684 257.525 116.067 258.289 116.067H258.297C259.06 116.067 259.677 116.692 259.677 117.463L259.608 129.287C259.608 130.051 258.983 130.668 258.22 130.668Z" fill="#50AA57"/>
<path d="M243.511 130.668C242.748 130.668 242.123 130.05 242.123 129.279V116.182C242.123 115.419 242.74 114.794 243.511 114.794C244.283 114.794 244.9 115.411 244.9 116.182V129.279C244.9 130.043 244.283 130.668 243.511 130.668Z" fill="#50AA57"/>
<path d="M229.365 130.668C228.601 130.668 227.977 130.051 227.977 129.279V122.492C227.977 121.728 228.594 121.104 229.365 121.104C230.136 121.104 230.753 121.721 230.753 122.492V129.279C230.753 130.043 230.136 130.668 229.365 130.668Z" fill="#50AA57"/>
<path d="M213.168 175.766C212.404 175.766 211.779 175.149 211.779 174.378V160.124C211.779 159.361 212.396 158.736 213.168 158.736C213.939 158.736 214.556 159.353 214.556 160.124V174.378C214.556 175.142 213.939 175.766 213.168 175.766Z" fill="#50AA57"/>
<path d="M243.958 161.513H180.58C179.816 161.513 179.191 160.895 179.191 160.124V147.05C179.191 146.287 179.808 145.662 180.58 145.662C181.351 145.662 181.968 146.279 181.968 147.05V158.736H242.578V147.05C242.578 146.287 243.195 145.662 243.966 145.662C244.737 145.662 245.354 146.279 245.354 147.05V160.124C245.354 160.888 244.737 161.513 243.966 161.513H243.958Z" fill="#50AA57"/>
<path d="M206.757 108.724V140.679C206.456 140.463 206.093 140.332 205.692 140.332H203.988V108.724C203.988 108.307 203.756 108.061 203.656 108.061H156.93C156.537 108.061 156.105 108.57 156.105 109.31V140.332H155.457C154.462 140.332 153.66 141.142 153.66 142.129V142.692C153.452 142.453 153.328 142.145 153.328 141.805V109.31C153.328 107.089 154.948 105.292 156.93 105.292H203.656C205.368 105.292 206.757 106.826 206.757 108.724Z" fill="#50AA57"/>
<path d="M206.759 137.695C206.419 137.61 206.064 137.563 205.694 137.563H188.818C188.047 137.563 187.429 138.181 187.429 138.944V140.788H173.731V138.944C173.731 138.181 173.114 137.563 172.35 137.563H155.459C154.687 137.563 153.962 137.749 153.33 138.088C151.88 138.852 150.885 140.371 150.885 142.13V143.865C150.885 146.387 152.936 148.439 155.459 148.439H205.694C208.216 148.439 210.26 146.387 210.26 143.865V142.13C210.26 139.978 208.772 138.173 206.759 137.695ZM207.491 143.865C207.491 144.86 206.689 145.67 205.694 145.67H155.459C154.464 145.67 153.661 144.86 153.661 143.865V142.13C153.661 141.142 154.464 140.332 155.459 140.332H170.962V142.168C170.962 142.94 171.579 143.557 172.35 143.557H188.818C189.581 143.557 190.198 142.94 190.198 142.168V140.332H205.694C206.095 140.332 206.458 140.464 206.759 140.68C207.198 141.011 207.491 141.536 207.491 142.13V143.865Z" fill="#50AA57"/>
<path d="M195.866 131.547H162.306C161.543 131.547 160.918 130.93 160.918 130.159C160.918 129.387 161.535 128.77 162.306 128.77H194.485L194.555 115.689C194.555 114.925 195.18 114.308 195.943 114.308C196.707 114.308 197.324 114.933 197.324 115.704L197.247 130.166C197.247 130.93 196.622 131.547 195.858 131.547H195.866Z" fill="#50AA57"/>
<path d="M180.271 130.668C179.508 130.668 178.883 130.051 178.883 129.279V115.01C178.883 114.246 179.5 113.622 180.271 113.622C181.042 113.622 181.66 114.239 181.66 115.01V129.279C181.66 130.043 181.042 130.668 180.271 130.668Z" fill="#50AA57"/>
<path d="M167.011 130.668C166.248 130.668 165.623 130.051 165.623 129.279V118.095C165.623 117.332 166.24 116.707 167.011 116.707C167.783 116.707 168.4 117.324 168.4 118.095V129.279C168.4 130.043 167.783 130.668 167.011 130.668Z" fill="#50AA57"/>
<path d="M58.998 165.593C58.998 164.829 59.6151 164.212 60.3864 164.212H83.9422C83.356 165.107 82.8084 166.025 82.3148 166.981H60.3864C59.6151 166.981 58.998 166.364 58.998 165.593Z" fill="#50AA57"/>
<path d="M110.853 211.331V229.033C110.853 235.134 105.886 240.101 99.7768 240.101H69.0092V245.377H76.0127C77.8715 245.377 79.391 246.889 79.391 248.748V253.591C79.391 255.45 77.8715 256.97 76.0127 256.97H34.8401C32.9735 256.97 31.4618 255.45 31.4618 253.591V248.748C31.4618 246.889 32.9735 245.377 34.8401 245.377H41.8436V240.101H11.076C4.96724 240.101 0 235.134 0 229.033V175.28C0 169.179 4.96724 164.212 11.076 164.212H49.8884C50.6597 164.212 51.2767 164.829 51.2767 165.593C51.2767 166.356 50.6597 166.981 49.8884 166.981H11.076C6.49444 166.981 2.76901 170.706 2.76901 175.28V229.033C2.76901 233.607 6.49444 237.332 11.076 237.332H43.232C43.9956 237.332 44.6203 237.957 44.6203 238.721V246.758C44.6203 247.521 43.9956 248.146 43.232 248.146H34.8401C34.5084 248.146 34.2308 248.416 34.2308 248.748V253.591C34.2308 253.923 34.5084 254.201 34.8401 254.201H76.0127C76.3443 254.201 76.622 253.923 76.622 253.591V248.748C76.622 248.416 76.3443 248.146 76.0127 248.146H67.6208C66.8572 248.146 66.2325 247.521 66.2325 246.758V238.721C66.2325 237.957 66.8572 237.332 67.6208 237.332H99.7768C104.358 237.332 108.084 233.607 108.084 229.033V211.339C108.508 211.362 108.932 211.37 109.364 211.37C109.866 211.37 110.359 211.354 110.853 211.331Z" fill="#50AA57"/>
<path d="M87.7981 233.753C82.0826 233.753 77.4316 229.102 77.4316 223.387C77.4316 217.672 82.0826 213.021 87.7981 213.021C93.5135 213.021 98.1645 217.672 98.1645 223.387C98.1645 229.102 93.5135 233.753 87.7981 233.753ZM87.7981 215.797C83.6098 215.797 80.2084 219.206 80.2084 223.387C80.2084 227.567 83.6176 230.977 87.7981 230.977C91.9786 230.977 95.3878 227.567 95.3878 223.387C95.3878 219.206 91.9786 215.797 87.7981 215.797Z" fill="#50AA57"/>
<path d="M34.9087 230.977H11.1987C9.33979 230.977 7.82031 229.465 7.82031 227.598V218.898C7.82031 217.039 9.33208 215.52 11.1987 215.52H34.9087C36.7676 215.52 38.2871 217.031 38.2871 218.898V227.598C38.2871 229.457 36.7753 230.977 34.9087 230.977ZM11.1987 218.289C10.867 218.289 10.5893 218.558 10.5893 218.898V227.598C10.5893 227.93 10.8593 228.208 11.1987 228.208H34.9087C35.2404 228.208 35.5181 227.938 35.5181 227.598V218.898C35.5181 218.566 35.2481 218.289 34.9087 218.289H11.1987Z" fill="#50AA57"/>
<path d="M55.5498 191.748C55.2876 191.748 55.0176 191.671 54.7862 191.517L40.1853 181.875C39.7997 181.621 39.5605 181.181 39.5605 180.718C39.5605 180.255 39.7919 179.816 40.1853 179.561L54.7862 169.92C55.249 169.611 55.8506 169.611 56.3134 169.92L70.9143 179.561C71.3 179.816 71.5391 180.255 71.5391 180.718C71.5391 181.181 71.3077 181.621 70.9143 181.875L56.3134 191.517C56.082 191.671 55.8198 191.748 55.5498 191.748ZM43.4634 180.718L55.5498 188.701L67.6363 180.718L55.5498 172.735L43.4634 180.718Z" fill="#50AA57"/>
<path d="M55.5505 172.473C54.7869 172.473 54.1621 171.856 54.1621 171.085V161.081C54.1621 160.317 54.7792 159.692 55.5505 159.692C56.3218 159.692 56.9388 160.309 56.9388 161.081V171.085C56.9388 171.848 56.3218 172.473 55.5505 172.473Z" fill="#50AA57"/>
<path d="M77.8952 224.629H36.9001C36.1365 224.629 35.5117 224.012 35.5117 223.24C35.5117 222.469 36.1288 221.852 36.9001 221.852H77.8952C78.6588 221.852 79.2836 222.469 79.2836 223.24C79.2836 224.012 78.6666 224.629 77.8952 224.629Z" fill="#50AA57"/>
<path d="M72.4945 230.075C72.1397 230.075 71.7849 229.936 71.515 229.666C70.9751 229.126 70.9751 228.247 71.515 227.707L75.9269 223.295L71.4147 218.783C70.8748 218.243 70.8748 217.363 71.4147 216.823C71.9546 216.283 72.8339 216.283 73.3738 216.823L78.8656 222.315C79.1278 222.577 79.2744 222.924 79.2744 223.295C79.2744 223.665 79.1278 224.012 78.8656 224.274L73.4664 229.673C73.1964 229.943 72.8416 230.082 72.4868 230.082L72.4945 230.075Z" fill="#50AA57"/>
<path d="M34.9087 209.148H11.1987C9.33979 209.148 7.82031 207.637 7.82031 205.77V197.07C7.82031 195.211 9.33208 193.691 11.1987 193.691H34.9087C36.7676 193.691 38.2871 195.203 38.2871 197.07V205.77C38.2871 207.629 36.7753 209.148 34.9087 209.148ZM11.1987 196.46C10.867 196.46 10.5893 196.73 10.5893 197.07V205.77C10.5893 206.102 10.8593 206.379 11.1987 206.379H34.9087C35.2404 206.379 35.5181 206.11 35.5181 205.77V197.07C35.5181 196.738 35.2481 196.46 34.9087 196.46H11.1987Z" fill="#50AA57"/>
<path d="M23.0466 196.461C22.283 196.461 21.6582 195.843 21.6582 195.072V180.726C21.6582 179.962 22.2753 179.337 23.0466 179.337H40.941C41.7046 179.337 42.3293 179.954 42.3293 180.726C42.3293 181.497 41.7123 182.114 40.941 182.114H24.4349V195.08C24.4349 195.843 23.8179 196.468 23.0466 196.468V196.461Z" fill="#50AA57"/>
<path d="M23.1008 196.46C22.7306 196.46 22.3835 196.314 22.1213 196.052L16.6295 190.56C16.0896 190.02 16.0896 189.141 16.6295 188.601C17.1695 188.061 18.0488 188.061 18.5887 188.601L23.1008 193.113L27.5127 188.701C28.0527 188.161 28.932 188.161 29.4719 188.701C30.0118 189.241 30.0118 190.12 29.4719 190.66L24.0727 196.059C23.8105 196.322 23.4634 196.468 23.0931 196.468L23.1008 196.46Z" fill="#50AA57"/>
<path d="M23.0544 218.281C22.2908 218.281 21.666 217.664 21.666 216.893V207.76C21.666 206.997 22.2831 206.372 23.0544 206.372C23.8257 206.372 24.4427 206.989 24.4427 207.76V216.893C24.4427 217.656 23.8257 218.281 23.0544 218.281Z" fill="#50AA57"/>
<path d="M55.55 162.469C49.8346 162.469 45.1836 157.818 45.1836 152.11C45.1836 146.402 49.8346 141.744 55.55 141.744C61.2654 141.744 65.9164 146.395 65.9164 152.11C65.9164 157.825 61.2654 162.469 55.55 162.469ZM55.55 144.513C51.3618 144.513 47.9603 147.922 47.9603 152.102C47.9603 156.283 51.3695 159.692 55.55 159.692C59.7305 159.692 63.1397 156.283 63.1397 152.102C63.1397 147.922 59.7305 144.513 55.55 144.513Z" fill="#50AA57"/>
<path d="M109.365 147.729C97.1475 147.729 86.4494 154.362 80.6878 164.212C80.1633 165.107 79.6773 166.032 79.2377 166.981C77.2631 171.223 76.1602 175.951 76.1602 180.934C76.1602 198.813 90.3677 213.437 108.085 214.116C108.509 214.131 108.933 214.139 109.365 214.139C109.866 214.139 110.36 214.131 110.854 214.1C128.478 213.321 142.57 198.744 142.57 180.934C142.57 163.124 127.676 147.729 109.365 147.729ZM110.854 211.331C110.36 211.354 109.866 211.37 109.365 211.37C108.933 211.37 108.509 211.362 108.085 211.339C91.8949 210.668 78.9292 197.286 78.9292 180.934C78.9292 175.905 80.1555 171.161 82.3152 166.981C82.8089 166.025 83.3565 165.107 83.9427 164.212C89.3881 155.959 98.7518 150.498 109.365 150.498C126.149 150.498 139.801 164.15 139.801 180.934C139.801 197.718 126.951 210.552 110.854 211.331Z" fill="#50AA57"/>
<path d="M131.069 194.756C130.838 194.756 130.599 194.694 130.383 194.571C129.719 194.193 129.488 193.345 129.874 192.681C131.918 189.126 133.005 185.061 133.005 180.942C133.005 176.322 131.663 171.84 129.125 167.984C128.701 167.344 128.879 166.488 129.519 166.063C130.159 165.639 131.015 165.817 131.439 166.457C134.278 170.761 135.774 175.774 135.774 180.934C135.774 185.539 134.563 190.074 132.28 194.054C132.025 194.502 131.555 194.748 131.077 194.748L131.069 194.756Z" fill="#50AA57"/>
<path d="M109.365 207.344C94.8025 207.344 82.9629 195.497 82.9629 180.942C82.9629 166.387 94.8102 154.54 109.365 154.54C110.128 154.54 110.753 155.157 110.753 155.928V180.371L128.038 197.656C128.301 197.919 128.447 198.266 128.447 198.636C128.447 199.006 128.301 199.353 128.038 199.615C123.125 204.529 116.314 207.352 109.365 207.352V207.344ZM107.977 157.348C95.5893 158.065 85.7319 168.377 85.7319 180.942C85.7319 193.507 96.3374 204.575 109.365 204.575C115.127 204.575 120.773 202.415 125.069 198.605L108.385 181.922C108.123 181.659 107.977 181.312 107.977 180.942V157.348Z" fill="#50AA57"/>
<path d="M109.365 207.336C108.601 207.336 107.977 206.719 107.977 205.948V199.823C107.977 199.06 108.594 198.435 109.365 198.435C110.136 198.435 110.753 199.052 110.753 199.823V205.948C110.753 206.711 110.136 207.336 109.365 207.336Z" fill="#50AA57"/>
<path d="M90.4755 182.323H84.3513C83.5877 182.323 82.9629 181.706 82.9629 180.934C82.9629 180.163 83.5799 179.546 84.3513 179.546H90.4755C91.2391 179.546 91.8638 180.163 91.8638 180.934C91.8638 181.706 91.2468 182.323 90.4755 182.323Z" fill="#50AA57"/>
<path d="M34.9782 65.3457C34.608 65.3457 34.2609 65.1991 33.9986 64.9369C33.7364 64.6746 33.5898 64.3276 33.5898 63.9573C33.5898 35.951 56.3744 13.1665 84.3807 13.1665C85.1443 13.1665 85.769 13.7836 85.769 14.5549V31.2383C85.769 32.0019 85.152 32.6267 84.3807 32.6267C67.1033 32.6267 53.0423 46.6877 53.0423 63.965C53.0423 64.7286 52.4253 65.3534 51.6539 65.3534H34.9705L34.9782 65.3457ZM83 15.9586C57.6239 16.6837 37.107 37.1928 36.382 62.5767H50.3041C51.0138 44.8674 65.2907 30.5904 83 29.8808V15.9664V15.9586Z" fill="#50AA57"/>
<path d="M84.3885 126.341C56.3822 126.341 33.5977 103.556 33.5977 75.55C33.5977 74.7864 34.2147 74.1616 34.986 74.1616H51.6695C52.4331 74.1616 53.0578 74.7787 53.0578 75.55C53.0578 92.8273 67.1188 106.888 84.3962 106.888C85.1598 106.888 85.7845 107.505 85.7845 108.277V124.96C85.7845 125.724 85.1675 126.349 84.3962 126.349L84.3885 126.341ZM36.3898 76.9383C37.1148 102.314 57.624 122.831 83.0078 123.556V109.642C65.2985 108.932 51.0216 94.6553 50.312 76.9461H36.3898V76.9383Z" fill="#50AA57"/>
<path d="M95.9743 126.341C95.2107 126.341 94.5859 125.724 94.5859 124.952V108.269C94.5859 107.505 95.203 106.881 95.9743 106.881C113.252 106.881 127.313 92.8195 127.313 75.5422C127.313 74.7786 127.93 74.1538 128.701 74.1538H145.384C146.148 74.1538 146.773 74.7709 146.773 75.5422C146.773 103.548 123.988 126.333 95.982 126.333L95.9743 126.341ZM97.3627 109.634V123.549C122.739 122.824 143.256 102.314 143.981 76.9305H130.059C129.349 94.6398 115.072 108.917 97.3627 109.626V109.634Z" fill="#50AA57"/>
<path d="M156.391 63.772H135.797C135.034 63.772 134.409 63.1549 134.409 62.3836C134.409 40.8718 116.908 23.363 95.3962 23.363C94.6326 23.363 94.0078 22.746 94.0078 21.9746V1.38836C94.0078 0.624762 94.6249 0 95.3962 0C129.797 0 157.78 27.9832 157.78 62.3836C157.78 63.1472 157.163 63.772 156.391 63.772ZM137.155 61.003H154.988C154.263 29.2327 128.547 3.52489 96.7768 2.79215V20.6249C118.721 21.3422 136.438 39.0592 137.155 61.003Z" fill="#50AA57"/>
<path d="M124.074 35.0867C123.719 35.0867 123.364 34.9479 123.094 34.6779C122.554 34.138 122.554 33.2587 123.094 32.7188L137.549 18.2721C138.089 17.7322 138.968 17.7322 139.508 18.2721C140.048 18.812 140.048 19.6913 139.508 20.2313L125.054 34.6779C124.784 34.9479 124.429 35.0867 124.074 35.0867Z" fill="#50AA57"/>
<path d="M130.668 43.1473C130.159 43.1473 129.673 42.8697 129.426 42.3838C129.087 41.6973 129.364 40.8643 130.051 40.5249L147.76 31.6857C148.446 31.3463 149.279 31.624 149.619 32.3104C149.958 32.9969 149.681 33.8299 148.994 34.1693L131.285 43.0085C131.084 43.1088 130.876 43.1551 130.668 43.1551V43.1473Z" fill="#50AA57"/>
<path d="M134.686 53.0433C134.007 53.0433 133.413 52.5419 133.313 51.8555C133.205 51.0996 133.729 50.3977 134.493 50.2897L154.678 47.4281C155.434 47.3202 156.136 47.8447 156.244 48.6082C156.352 49.3641 155.827 50.066 155.064 50.174L134.879 53.0356C134.809 53.0433 134.748 53.051 134.686 53.051V53.0433Z" fill="#50AA57"/>
<path d="M115.989 28.4766C115.812 28.4766 115.627 28.4381 115.449 28.3687C114.747 28.0678 114.416 27.258 114.717 26.5484L122.623 7.89806C122.923 7.19617 123.733 6.86451 124.435 7.16532C125.137 7.46613 125.469 8.276 125.168 8.98561L117.262 27.6359C117.038 28.1604 116.521 28.4844 115.989 28.4844V28.4766Z" fill="#50AA57"/>
<path d="M105.276 24.4272C105.222 24.4272 105.175 24.4272 105.121 24.4195C104.358 24.3346 103.81 23.6482 103.903 22.8846L106.178 2.58368C106.263 1.82009 106.949 1.27245 107.713 1.3573C108.477 1.44214 109.024 2.12861 108.932 2.89221L106.656 23.1931C106.579 23.9027 105.978 24.4272 105.283 24.4272H105.276Z" fill="#50AA57"/>
<path d="M117.223 93.4288H110.05C108.677 93.4288 107.559 92.3104 107.559 90.9452V50.8679C107.559 49.495 108.677 48.3843 110.05 48.3843H117.223C118.596 48.3843 119.707 49.5027 119.707 50.8679V90.9452C119.707 92.3181 118.588 93.4288 117.223 93.4288ZM110.328 90.6598H116.938V51.1533H110.328V90.6598Z" fill="#50AA57"/>
<path d="M71.3841 93.4289H64.7199C63.347 93.4289 62.2363 92.3106 62.2363 90.9453V70.0891C62.2363 68.7162 63.3547 67.6055 64.7199 67.6055H71.3841C72.757 67.6055 73.8754 68.7239 73.8754 70.0891V90.9453C73.8754 92.3183 72.757 93.4289 71.3841 93.4289ZM65.0053 90.6599H71.0987V70.3668H65.0053V90.6599Z" fill="#50AA57"/>
<path d="M94.308 93.4288H86.9034C85.5305 93.4288 84.4121 92.3104 84.4121 90.9452V58.8972C84.4121 57.5243 85.5305 56.4136 86.9034 56.4136H94.308C95.681 56.4136 96.7994 57.532 96.7994 58.8972V90.9452C96.7994 92.3181 95.681 93.4288 94.308 93.4288ZM87.1888 90.6598H94.0226V59.1826H87.1888V90.6598Z" fill="#50AA57"/>
<path d="M68.0523 56.6295C67.6049 56.6295 67.1653 56.4136 66.8953 56.0125C66.4711 55.3723 66.6408 54.5161 67.281 54.0919L82.3832 44.0186C82.7535 43.7718 83.2163 43.7178 83.6251 43.8721L97.8249 49.0707L112.788 38.7737C113.421 38.3418 114.285 38.496 114.717 39.1285C115.149 39.761 114.994 40.6248 114.362 41.0568L98.8122 51.7626C98.4419 52.0171 97.9714 52.0788 97.5472 51.9245L83.332 46.7259L68.8159 56.4059C68.5768 56.5601 68.3145 56.6373 68.0523 56.6373V56.6295Z" fill="#50AA57"/>
<path d="M71.0307 55.2414C71.0307 56.8843 69.6963 58.2187 68.0534 58.2187C66.4105 58.2187 65.0762 56.8843 65.0762 55.2414C65.0762 53.5985 66.4105 52.2642 68.0534 52.2642C69.6963 52.2642 71.0307 53.5985 71.0307 55.2414Z" fill="#50AA57"/>
<path d="M68.0531 59.6069C65.6466 59.6069 63.6875 57.6478 63.6875 55.249C63.6875 52.8502 65.6466 50.8911 68.0531 50.8911C70.4596 50.8911 72.4187 52.8502 72.4187 55.249C72.4187 57.6478 70.4596 59.6069 68.0531 59.6069ZM68.0531 53.6524C67.1738 53.6524 66.4642 54.362 66.4642 55.2413C66.4642 56.1206 67.1815 56.8302 68.0531 56.8302C68.9247 56.8302 69.642 56.1206 69.642 55.2413C69.642 54.362 68.9247 53.6524 68.0531 53.6524Z" fill="#50AA57"/>
<path d="M86.1323 45.1755C86.1323 46.8184 84.7979 48.1528 83.155 48.1528C81.5121 48.1528 80.1777 46.8184 80.1777 45.1755C80.1777 43.5326 81.5121 42.1982 83.155 42.1982C84.7979 42.1982 86.1323 43.5326 86.1323 45.1755Z" fill="#50AA57"/>
<path d="M83.1547 49.5337C80.7482 49.5337 78.7891 47.5746 78.7891 45.1758C78.7891 42.777 80.7482 40.8179 83.1547 40.8179C85.5612 40.8179 87.5203 42.777 87.5203 45.1758C87.5203 47.5746 85.5612 49.5337 83.1547 49.5337ZM83.1547 43.5792C82.2754 43.5792 81.5658 44.2888 81.5658 45.1681C81.5658 46.0474 82.2831 46.757 83.1547 46.757C84.0263 46.757 84.7436 46.0474 84.7436 45.1681C84.7436 44.2888 84.0263 43.5792 83.1547 43.5792Z" fill="#50AA57"/>
<path d="M98.0339 53.5908C99.6782 53.5908 101.011 52.2578 101.011 50.6135C101.011 48.9692 99.6782 47.6362 98.0339 47.6362C96.3896 47.6362 95.0566 48.9692 95.0566 50.6135C95.0566 52.2578 96.3896 53.5908 98.0339 53.5908Z" fill="#50AA57"/>
<path d="M98.0258 54.979C95.6193 54.979 93.6602 53.0199 93.6602 50.6211C93.6602 48.2223 95.6193 46.2632 98.0258 46.2632C100.432 46.2632 102.391 48.2223 102.391 50.6211C102.391 53.0199 100.432 54.979 98.0258 54.979ZM98.0258 49.0245C97.1465 49.0245 96.4369 49.7341 96.4369 50.6134C96.4369 51.4927 97.1542 52.2023 98.0258 52.2023C98.8974 52.2023 99.6147 51.4927 99.6147 50.6134C99.6147 49.7341 98.8974 49.0245 98.0258 49.0245Z" fill="#50AA57"/>
<path d="M116.56 39.9152C116.56 41.5581 115.226 42.8925 113.583 42.8925C111.94 42.8925 110.605 41.5581 110.605 39.9152C110.605 38.2724 111.94 36.938 113.583 36.938C115.226 36.938 116.56 38.2724 116.56 39.9152Z" fill="#50AA57"/>
<path d="M113.582 44.2734C111.176 44.2734 109.217 42.3143 109.217 39.9155C109.217 37.5167 111.176 35.5576 113.582 35.5576C115.989 35.5576 117.948 37.5167 117.948 39.9155C117.948 42.3143 115.989 44.2734 113.582 44.2734ZM113.582 38.3189C112.703 38.3189 111.994 39.0285 111.994 39.9078C111.994 40.7871 112.711 41.4967 113.582 41.4967C114.454 41.4967 115.171 40.7871 115.171 39.9078C115.171 39.0285 114.454 38.3189 113.582 38.3189Z" fill="#50AA57"/>
</g>
<defs>
<clipPath id="clip0_379_4287">
<rect width="272.612" height="256.97" fill="white"/>
</clipPath>
</defs>
</svg>
